<?xml version="1.0" encoding="UTF-8"?>
<svg width="54px" height="64px" viewBox="0 0 54 64" version="1.1" xmlns="http://www.w3.org/2000/svg" xmlns:xlink="http://www.w3.org/1999/xlink">
    <!-- Generator: Sketch 49 (51002) - http://www.bohemiancoding.com/sketch -->
    <title>wetsuit</title>
    <desc>Created with Sketch.</desc>
    <defs>
        <linearGradient x1="50%" y1="100%" x2="50%" y2="0%" id="linearGradient-1">
            <stop stop-color="#5191FA" offset="0%"></stop>
            <stop stop-color="#0BB1D3" offset="100%"></stop>
        </linearGradient>
    </defs>
    <g id="Page-1" stroke="none" stroke-width="1" fill="none" fill-rule="evenodd">
        <g id="01_Home" transform="translate(-135.000000, -688.000000)" fill="url(#linearGradient-1)" fill-rule="nonzero">
            <g id="Group-8" transform="translate(0.000000, 649.000000)">
                <g id="1" transform="translate(135.000000, 0.000000)">
                    <g transform="translate(0.000000, 33.000000)" id="wetsuit">
                        <g transform="translate(0.000000, 6.000000)">
                            <path d="M54,55.140121 C54,50.7530243 50.9905912,47.0236895 46.6810773,46.0705645 L35.3076923,43.5594759 L35.3076923,41.2822581 C40.8635629,38.3225806 44.6538462,32.4984879 44.6538462,25.8064516 L44.6538462,17.5483871 C44.6538462,7.87197574 36.7345629,0 27,0 C17.2654371,0 9.34615385,7.87197574 9.34615385,17.5483871 L9.34615385,25.8064516 C9.34615385,32.4984879 13.1364371,38.3225806 18.6923077,41.2822581 L18.6923077,43.5594759 L7.31892271,46.0715726 C3.00940884,47.0236895 0,50.7530243 0,55.140121 L0,64 L54,64 L54,55.140121 Z M43.2604417,47.4304436 C42.1200609,51.2434476 41.5384615,55.1864919 41.5384615,59.1743951 L41.5384615,61.9354839 L28.0384615,61.9354839 L28.0384615,59.8709677 L39.4615385,59.8709677 L39.4615385,57.8064516 L28.0384615,57.8064516 L28.0384615,47.4405241 C31.1340707,47.2071573 33.5390625,46.0065524 34.4507588,45.4853831 L43.2604417,47.4304436 Z M33.2307692,43.7978831 C32.3905687,44.2550403 30.466271,45.1542338 28.0384615,45.3689516 L28.0384615,43.3034274 C29.8567833,43.1970766 31.5995531,42.8200605 33.2307692,42.2061492 L33.2307692,43.7978831 Z M32.1923077,2.96774194 L32.1923077,7.22883071 C30.5930364,6.56401213 28.8391114,6.19354839 27,6.19354839 C25.1608886,6.19354839 23.4069636,6.56401213 21.8076923,7.22883071 L21.8076923,2.96774194 C23.434852,2.39364916 25.1776218,2.06451613 27,2.06451613 C28.8223782,2.06451613 30.565148,2.39364916 32.1923077,2.96774194 Z M16.0190805,16.516129 L16.3628682,16.516129 C17.8987568,16.516129 19.3879958,16.2207662 20.7692308,15.6612903 L20.7692308,16.516129 L21.5551758,16.516129 C23.0910645,16.516129 24.5803035,16.2207662 25.9615385,15.6612903 L25.9615385,16.516129 L26.7474835,16.516129 C28.2833722,16.516129 29.7726112,16.2207662 31.1538462,15.6612903 L31.1538462,16.516129 L31.9397912,16.516129 C33.8889347,16.516129 35.7843299,16.0317541 37.4855206,15.1174395 C38.0863882,16.4974799 38.4230769,18.016129 38.4230769,19.6129032 L38.4230769,25.8064516 C38.4230769,32.0670363 33.2982084,37.1612903 27,37.1612903 C20.7017916,37.1612903 15.5769231,32.0670363 15.5769231,25.8064516 L15.5769231,19.6129032 C15.5769231,18.5383065 15.7376615,17.5020161 16.0190805,16.516129 Z M33.6004169,14.2938508 C34.0917592,13.9375 34.5653546,13.5524194 35.0034555,13.1169355 L33.535006,11.6572581 C32.1162484,13.0675404 30.3303786,13.9727822 28.3934044,14.3039315 C28.8898175,13.9455645 29.3684834,13.5564516 29.8111478,13.1169355 L28.3426983,11.6572581 C26.9239407,13.0675404 25.1380709,13.9727822 23.2010968,14.3039315 C23.6975098,13.9455645 24.1761757,13.5564516 24.6188401,13.1169355 L23.1503906,11.6572581 C21.4537636,13.3437499 19.2292856,14.3099799 16.8491398,14.4279234 C18.7485915,10.7696573 22.5814679,8.25806452 27,8.25806452 C30.9449369,8.25806452 34.4289551,10.2575605 36.4820463,13.2893146 C35.5764347,13.7746975 34.609976,14.1169355 33.6004169,14.2938508 Z M11.4230769,25.8064516 L11.4230769,17.5483871 C11.4230769,11.6199597 14.7960487,6.46522181 19.7307692,3.86491935 L19.7307692,8.32308465 C15.9901781,10.7116935 13.5,14.875 13.5,19.6129032 L13.5,25.8064516 C13.5,33.2056452 19.5563401,39.2258065 27,39.2258065 C34.4436599,39.2258065 40.5,33.2056452 40.5,25.8064516 L40.5,19.6129032 C40.5,14.875 38.0098219,10.7116935 34.2692308,8.32308465 L34.2692308,3.86491935 C39.2039513,6.46622981 42.5769231,11.6199597 42.5769231,17.5483871 L42.5769231,25.8064516 C42.5769231,34.3442541 35.5891114,41.2903226 27,41.2903226 C18.4108886,41.2903226 11.4230769,34.3442541 11.4230769,25.8064516 Z M25.9615385,43.3024194 L25.9615385,45.3679435 C23.5458984,45.1522178 21.6134878,44.2530243 20.7692308,43.7953628 L20.7692308,42.2051412 C22.4004469,42.8190524 24.1432167,43.1970766 25.9615385,43.3024194 Z M19.5492412,45.484375 C20.4609375,46.0065524 22.8659293,47.2071573 25.9615385,47.4395161 L25.9615385,57.8064516 L14.5384615,57.8064516 L14.5384615,59.8709677 L25.9615385,59.8709677 L25.9615385,61.9354839 L12.4615385,61.9354839 L12.4615385,59.1743951 C12.4615385,55.1875 11.8799391,51.2444556 10.7395583,47.4314516 L19.5492412,45.484375 Z M2.07692308,55.140121 C2.07692308,51.7273186 4.41751803,48.8266129 7.76868612,48.0866935 L8.70522837,47.8800403 C9.81670673,51.5448588 10.3846154,55.3382057 10.3846154,59.1743951 L10.3846154,61.9354839 L2.07692308,61.9354839 L2.07692308,55.140121 Z M51.9230769,61.9354839 L43.6153846,61.9354839 L43.6153846,59.1743951 C43.6153846,55.3382057 44.1832933,51.545867 45.2947716,47.8800403 L46.2313139,48.0866935 C49.582482,48.8266129 51.9230769,51.7273186 51.9230769,55.140121 L51.9230769,61.9354839 Z M19.7307692,20.6451613 C19.7307692,20.0756049 20.1962516,19.6129032 20.7692308,19.6129032 C21.34221,19.6129032 21.8076923,20.0756049 21.8076923,20.6451613 C21.8076923,21.2147177 21.34221,21.6774194 20.7692308,21.6774194 C20.1962516,21.6774194 19.7307692,21.2147177 19.7307692,20.6451613 Z M32.1923077,20.6451613 C32.1923077,20.0756049 32.65779,19.6129032 33.2307692,19.6129032 C33.8037484,19.6129032 34.2692308,20.0756049 34.2692308,20.6451613 C34.2692308,21.2147177 33.8037484,21.6774194 33.2307692,21.6774194 C32.65779,21.6774194 32.1923077,21.2147177 32.1923077,20.6451613 Z M21.8076923,27.8709677 L23.8846154,27.8709677 C23.8846154,29.578125 25.2825834,30.9677419 27,30.9677419 C28.7174166,30.9677419 30.1153846,29.578125 30.1153846,27.8709677 L32.1923077,27.8709677 C32.1923077,30.7167339 29.8628682,33.0322581 27,33.0322581 C24.1371318,33.0322581 21.8076923,30.7167339 21.8076923,27.8709677 Z" id="Shape"></path>
                        </g>
                    </g>
                </g>
            </g>
        </g>
    </g>
</svg>