<?xml version="1.0" encoding="UTF-8"?>
<svg width="42px" height="64px" viewBox="0 0 42 64" version="1.1" xmlns="http://www.w3.org/2000/svg" xmlns:xlink="http://www.w3.org/1999/xlink">
    <!-- Generator: Sketch 49 (51002) - http://www.bohemiancoding.com/sketch -->
    <title>location-pin</title>
    <desc>Created with Sketch.</desc>
    <defs>
        <linearGradient x1="50%" y1="100%" x2="50%" y2="0%" id="linearGradient-1">
            <stop stop-color="#5191FA" offset="0%"></stop>
            <stop stop-color="#0BB1D3" offset="100%"></stop>
        </linearGradient>
    </defs>
    <g id="Page-1" stroke="none" stroke-width="1" fill="none" fill-rule="evenodd">
        <g id="01_Home" transform="translate(-536.000000, -688.000000)" fill="url(#linearGradient-1)" fill-rule="nonzero">
            <g id="Group-8" transform="translate(0.000000, 649.000000)">
                <g id="1" transform="translate(135.000000, 0.000000)">
                    <g id="2" transform="translate(400.000000, 33.000000)">
                        <g id="location-pin" transform="translate(1.000000, 6.000000)">
                            <path d="M35.2433548,35.3775484 C39.1421935,31.4787097 41.2903226,26.2936774 41.2903226,20.7793548 L41.2903226,20.6451613 C41.2903226,9.26141935 32.0289032,0 20.6451613,0 C9.26141935,0 0,9.26141935 0,20.6451613 L0,20.7793548 C0,26.2936774 2.14812903,31.4787097 6.04696774,35.3785806 L7.64593548,36.9765161 C11.872,41.2036129 14.8376774,46.3628387 16.3953548,52.0495484 C12.1021935,52.9620645 9.29032258,55.1969032 9.29032258,57.8064516 C9.29032258,61.2789677 14.2781935,64 20.6451613,64 C27.012129,64 32,61.2789677 32,57.8064516 C32,55.1979355 29.1891613,52.9630968 24.896,52.0485161 C26.4536774,46.3618065 29.4193548,41.2025806 33.6454194,36.9754839 L35.2433548,35.3775484 Z M29.9354839,57.8064516 C29.9354839,59.7594839 26.1202581,61.9354839 20.6451613,61.9354839 C15.1700645,61.9354839 11.3548387,59.7594839 11.3548387,57.8064516 C11.3548387,56.2683871 13.6743226,54.7344516 16.8846452,54.0572903 C17.0147097,54.6766452 17.1499355,55.2939355 17.2469677,55.9236129 C17.5060645,57.6123871 18.9357419,58.8387097 20.6451613,58.8387097 C22.3545806,58.8387097 23.7842581,57.6123871 24.0433548,55.9236129 C24.1403871,55.2939355 24.2756129,54.6756129 24.4056774,54.0562581 C27.616,54.7344516 29.9354839,56.2694194 29.9354839,57.8064516 Z M22.0036129,55.6087742 C21.8993548,56.283871 21.3285161,56.7741935 20.6451613,56.7741935 C19.9618065,56.7741935 19.3909677,56.283871 19.2867097,55.6087742 C18.107871,47.9463226 14.587871,40.9992258 9.10554839,35.515871 L7.50658065,33.9179355 C3.99793548,30.4082581 2.06451613,25.7424516 2.06451613,20.7793548 L2.06451613,20.6451613 C2.06451613,10.4 10.4,2.06451613 20.6451613,2.06451613 C30.8903226,2.06451613 39.2258065,10.4 39.2258065,20.6451613 L39.2258065,20.7793548 C39.2258065,25.7424516 37.2923871,30.4082581 33.7837419,33.9189677 L32.1847742,35.5169032 C26.7024516,40.9992258 23.1824516,47.9463226 22.0036129,55.6087742 Z M20.6451613,6.19354839 C12.676129,6.19354839 6.19354839,12.676129 6.19354839,20.6451613 C6.19354839,28.6141935 12.676129,35.0967742 20.6451613,35.0967742 C28.6141935,35.0967742 35.0967742,28.6141935 35.0967742,20.6451613 C35.0967742,12.676129 28.6141935,6.19354839 20.6451613,6.19354839 Z M20.6451613,33.0322581 C13.8147097,33.0322581 8.25806452,27.4756129 8.25806452,20.6451613 C8.25806452,13.8147097 13.8147097,8.25806452 20.6451613,8.25806452 C27.4756129,8.25806452 33.0322581,13.8147097 33.0322581,20.6451613 C33.0322581,27.4756129 27.4756129,33.0322581 20.6451613,33.0322581 Z M15.483871,37.1612903 L17.5483871,37.1612903 L17.5483871,39.2258065 L15.483871,39.2258065 L15.483871,37.1612903 Z M19.6129032,37.1612903 L21.6774194,37.1612903 L21.6774194,39.2258065 L19.6129032,39.2258065 L19.6129032,37.1612903 Z M23.7419355,37.1612903 L25.8064516,37.1612903 L25.8064516,39.2258065 L23.7419355,39.2258065 L23.7419355,37.1612903 Z" id="Shape"></path>
                        </g>
                    </g>
                </g>
            </g>
        </g>
    </g>
</svg>