<?xml version="1.0" encoding="UTF-8"?>
<svg width="45px" height="64px" viewBox="0 0 45 64" version="1.1" xmlns="http://www.w3.org/2000/svg" xmlns:xlink="http://www.w3.org/1999/xlink">
    <!-- Generator: Sketch 49 (51002) - http://www.bohemiancoding.com/sketch -->
    <title>adventurous</title>
    <desc>Created with Sketch.</desc>
    <defs>
        <linearGradient x1="50%" y1="100%" x2="50%" y2="0%" id="linearGradient-1">
            <stop stop-color="#5191FA" offset="0%"></stop>
            <stop stop-color="#0BB1D3" offset="100%"></stop>
        </linearGradient>
    </defs>
    <g id="Page-1" stroke="none" stroke-width="1" fill="none" fill-rule="evenodd">
        <g id="01_Home" transform="translate(-934.000000, -688.000000)" fill="url(#linearGradient-1)" fill-rule="nonzero">
            <g id="Group-8" transform="translate(0.000000, 649.000000)">
                <g id="1" transform="translate(135.000000, 0.000000)">
                    <g id="3" transform="translate(799.000000, 33.000000)">
                        <g id="Group-2" transform="translate(0.717647, 0.000000)">
                            <g id="adventurous" transform="translate(0.000000, 6.000000)">
                                <path d="M16.516129,25.8064516 C15.9463226,25.8064516 15.483871,25.344 15.483871,24.7741935 C15.483871,24.2043871 15.9463226,23.7419355 16.516129,23.7419355 C17.0859355,23.7419355 17.5483871,24.2043871 17.5483871,24.7741935 C17.5483871,25.344 17.0859355,25.8064516 16.516129,25.8064516 Z M26.8387097,25.8064516 C27.4085161,25.8064516 27.8709677,25.344 27.8709677,24.7741935 C27.8709677,24.2043871 27.4085161,23.7419355 26.8387097,23.7419355 C26.2689032,23.7419355 25.8064516,24.2043871 25.8064516,24.7741935 C25.8064516,25.344 26.2689032,25.8064516 26.8387097,25.8064516 Z M21.6774194,34.0645161 C23.9545806,34.0645161 25.8064516,32.2126452 25.8064516,29.9354839 L23.7419355,29.9354839 C23.7419355,31.0740645 22.816,32 21.6774194,32 C20.5388387,32 19.6129032,31.0740645 19.6129032,29.9354839 L17.5483871,29.9354839 C17.5483871,32.2126452 19.4002581,34.0645161 21.6774194,34.0645161 Z M12.7514839,34.0645161 C12.1868387,33.092129 11.771871,32.0227097 11.5499355,30.8830968 C9.10348387,30.4794839 7.22580645,28.3654194 7.22580645,25.8064516 L7.22580645,18.5806452 L5.16129032,18.5806452 L5.16129032,17.5483871 C5.16129032,15.8513548 5.99535484,14.3566452 7.26296774,13.4152258 C7.55509677,5.85187097 13.7713548,0 21.6774194,0 C29.5896774,0 35.8100645,5.85496774 36.1011613,13.4224516 C37.3636129,14.3649032 38.1935484,15.8565161 38.1935484,17.5483871 L38.1935484,18.5806452 L36.1290323,18.5806452 L36.1290323,25.8064516 C36.1290323,28.3654194 34.2513548,30.4794839 31.8049032,30.8830968 C31.5829677,32.0227097 31.168,33.092129 30.6033548,34.0645161 L35.0967742,34.0645161 C37.9427097,34.0645161 40.2580645,36.379871 40.2580645,39.2258065 L40.2580645,42.5362581 C42.1378065,43.8585806 43.3548387,46.0242581 43.3548387,48.4325161 L43.3548387,64 L0,64 L0,48.4325161 C0,46.0242581 1.21703226,43.8585806 3.09677419,42.5362581 L3.09677419,39.2258065 C3.09677419,36.379871 5.41212903,34.0645161 8.25806452,34.0645161 L12.7514839,34.0645161 Z M5.16129032,41.5370323 C5.37703226,41.472 5.58451613,41.3914839 5.80851613,41.3470968 L15.483871,39.4116129 L15.483871,37.1416774 C15.072,36.8309677 14.6787097,36.4965161 14.3184516,36.1290323 L8.25806452,36.1290323 C6.55070968,36.1290323 5.16129032,37.5184516 5.16129032,39.2258065 L5.16129032,41.5370323 Z M35.9525161,16.516129 C35.5261935,15.3145806 34.3783226,14.4516129 33.0322581,14.4516129 L10.3225806,14.4516129 C8.97651613,14.4516129 7.82864516,15.3145806 7.40232258,16.516129 L35.9525161,16.516129 Z M13.4193548,18.5806452 L13.4193548,20.603871 C15.0090323,20.5130323 16.5780645,20.2250323 18.0944516,19.7192258 L19.6129032,19.2144516 L19.6129032,20.6451613 C21.5566452,20.6451613 23.4766452,20.3334194 25.3202581,19.7192258 L26.8387097,19.2144516 L26.8387097,20.6420645 C27.9009032,20.612129 28.9538065,20.3747097 29.9354839,19.9690323 L29.9354839,18.5806452 L13.4193548,18.5806452 Z M13.4193548,28.9032258 C13.4193548,33.4565161 17.124129,37.1612903 21.6774194,37.1612903 C26.2307097,37.1612903 29.9354839,33.4565161 29.9354839,28.9032258 L29.9354839,22.1636129 C28.8567742,22.5135484 27.7274839,22.7096774 26.5950968,22.7096774 L24.7741935,22.7096774 L24.7741935,22.0366452 C23.0916129,22.4836129 21.3605161,22.7096774 19.6129032,22.7096774 L17.5483871,22.7096774 L17.5483871,22.0366452 C16.1981935,22.395871 14.816,22.6054194 13.4193548,22.6766452 L13.4193548,28.9032258 Z M9.29032258,42.756129 L9.29032258,61.9354839 L13.4193548,61.9354839 L13.4193548,41.9303226 L9.29032258,42.756129 Z M15.483871,41.5174194 L15.483871,48.3767742 L20.0650323,44.5594839 L16.2343226,41.3677419 L15.483871,41.5174194 Z M23.2898065,44.5594839 L27.8709677,48.3767742 L27.8709677,41.5174194 L27.1205161,41.3677419 L23.2898065,44.5594839 Z M21.6774194,45.9034839 L20.6451613,46.7633548 L20.6451613,54.2823226 L21.6774194,55.3145806 L22.7096774,54.2823226 L22.7096774,46.7633548 L21.6774194,45.9034839 Z M15.483871,61.9354839 L27.8709677,61.9354839 L27.8709677,51.0647742 L24.7741935,48.484129 L24.7741935,55.1370323 L21.6774194,58.2338065 L18.5806452,55.1370323 L18.5806452,48.484129 L15.483871,51.0647742 L15.483871,61.9354839 Z M29.9354839,61.9354839 L34.0645161,61.9354839 L34.0645161,42.756129 L29.9354839,41.9303226 L29.9354839,61.9354839 Z M25.8064516,38.3576774 C24.5409032,38.9130323 23.1452903,39.2258065 21.6774194,39.2258065 C20.2095484,39.2258065 18.8139355,38.9130323 17.5483871,38.3576774 L17.5483871,39.7739355 L21.6774194,43.2144516 L25.8064516,39.7739355 L25.8064516,38.3576774 Z M2.06451613,61.9354839 L7.22580645,61.9354839 L7.22580645,43.1690323 L6.21419355,43.3713548 C3.81006452,43.8523871 2.06451613,45.9809032 2.06451613,48.4325161 L2.06451613,61.9354839 Z M37.1406452,43.3713548 L36.1290323,43.1690323 L36.1290323,61.9354839 L41.2903226,61.9354839 L41.2903226,48.4325161 C41.2903226,45.9809032 39.5458065,43.8513548 37.1406452,43.3713548 Z M29.0363871,36.1290323 C28.6750968,36.4965161 28.2828387,36.8309677 27.8709677,37.1416774 L27.8709677,39.4116129 L37.5463226,41.3470968 C37.7703226,41.3914839 37.9778065,41.472 38.1935484,41.5370323 L38.1935484,39.2258065 C38.1935484,37.5184516 36.804129,36.1290323 35.0967742,36.1290323 L29.0363871,36.1290323 Z M34.0645161,25.8064516 C34.0645161,24.4624516 33.1984516,23.3269677 32,22.8996129 L32,28.7122581 C33.1984516,28.2859355 34.0645161,27.1504516 34.0645161,25.8064516 Z M34.0645161,18.5806452 L32,18.5806452 L32,20.7494194 C32.7669677,20.9063226 33.4616774,21.2469677 34.0645161,21.7032258 L34.0645161,18.5806452 Z M9.40077419,12.48 C9.70116129,12.4252903 10.0067097,12.3870968 10.3225806,12.3870968 L33.0322581,12.3870968 C33.3501935,12.3870968 33.659871,12.4252903 33.9623226,12.4810323 C33.2190968,6.53419355 28.096,2.06451613 21.6774194,2.06451613 C15.2629677,2.06451613 10.1419355,6.53419355 9.40077419,12.48 Z M9.29032258,18.5806452 L9.29032258,21.7042581 C9.89316129,21.248 10.587871,20.9063226 11.3548387,20.7504516 L11.3548387,18.5806452 L9.29032258,18.5806452 Z M11.3548387,28.7132903 L11.3548387,22.9006452 C10.1563871,23.328 9.29032258,24.4634839 9.29032258,25.8074839 C9.29032258,27.1514839 10.1563871,28.2859355 11.3548387,28.7132903 Z" id="Shape"></path>
                            </g>
                        </g>
                    </g>
                </g>
            </g>
        </g>
    </g>
</svg>