<?xml version="1.0" encoding="UTF-8"?>
<svg width="167px" height="47px" viewBox="0 0 167 47" version="1.1" xmlns="http://www.w3.org/2000/svg" xmlns:xlink="http://www.w3.org/1999/xlink">
    <!-- Generator: Sketch 49 (51002) - http://www.bohemiancoding.com/sketch -->
    <title>Group 2</title>
    <desc>Created with Sketch.</desc>
    <defs></defs>
    <g id="Page-1" stroke="none" stroke-width="1" fill="none" fill-rule="evenodd">
        <g id="Group-2" transform="translate(0.000000, -4.000000)">
            <g id="compass" transform="translate(0.000000, 4.000000)" fill="#5191FA">
                <path d="M34.9008828,42.6853047 C35.7496367,42.1710391 36.0209648,41.0662305 35.5067891,40.2173867 C34.9925234,39.3684531 33.8877148,39.0973047 33.0388711,39.6114805 C30.02075,41.4398906 26.5492773,42.40625 23,42.40625 C12.2993398,42.40625 3.59375,33.7006602 3.59375,23 C3.59375,12.2993398 12.2993398,3.59375 23,3.59375 C33.7006602,3.59375 42.40625,12.2993398 42.40625,23 C42.40625,26.8263555 41.2683789,30.5508281 39.1156328,33.7708281 C38.5639922,34.5958633 38.7857266,35.7118125 39.6106719,36.2632734 C40.4358867,36.8149141 41.5516563,36.5931797 42.1031172,35.7682344 C44.6525234,31.9550859 46,27.5398047 46,23 C46,16.8564844 43.6075508,11.0806992 39.2635156,6.73648437 C34.9193008,2.39244922 29.1435156,0 23,0 C16.8564844,0 11.0806992,2.39244922 6.73648438,6.73648438 C2.39244922,11.0806992 0,16.8564844 0,23 C0,29.1435156 2.39244922,34.9193008 6.73648438,39.2635156 C11.0806992,43.6075508 16.8564844,46 23,46 C27.2058555,46 31.3210586,44.8537734 34.9008828,42.6853047 Z" id="Shape" fill-rule="nonzero"></path>
                <path d="M25.3106383,29.612766 C25.6553208,29.612766 25.9361691,29.7276584 26.1659574,29.9574468 C26.4042565,30.1957459 26.5234043,30.4765941 26.5234043,30.8 C26.5234043,31.1319166 26.4042565,31.4170201 26.1659574,31.6553191 C25.9361691,31.8851075 25.6553208,32 25.3234043,32 C23.8468012,32 22.5957499,31.4808563 21.5574468,30.4425532 C20.5191437,29.4042501 20,28.1531988 20,26.6893617 L20,15.187234 C20,14.8638282 20.1148925,14.5829799 20.3446809,14.3446809 C20.5829799,14.1148925 20.8680834,14 21.2,14 C21.5234059,14 21.8042541,14.1148925 22.0425532,14.3446809 C22.2723416,14.5829799 22.387234,14.8638282 22.387234,15.187234 L22.387234,19.1446809 L24.3148936,19.1446809 C24.6468102,19.1446809 24.9276584,19.2595733 25.1574468,19.4893617 C25.3957459,19.7191501 25.5148936,19.9999983 25.5148936,20.3319149 C25.5148936,20.6638314 25.3957459,20.9446797 25.1574468,21.1744681 C24.9276584,21.4127671 24.6468102,21.5319149 24.3148936,21.5319149 L22.387234,21.5319149 L22.387234,26.6893617 C22.387234,27.4978764 22.6723376,28.1872312 23.2425532,28.7574468 C23.8127688,29.3276624 24.5021236,29.612766 25.3106383,29.612766 Z" id="t" stroke="#5191FA" stroke-width="0.6"></path>
            </g>
            <g id="Group" transform="translate(56.000000, 0.000000)" fill="#1A2B48">
                <path d="M2.55,11.57 C2.55,11.4099992 2.60499945,11.2750006 2.715,11.165 C2.82500055,11.0549995 2.9599992,11 3.12,11 L5.91,11 C6.0700008,11 6.20499945,11.0549995 6.315,11.165 C6.42500055,11.2750006 6.48,11.4099992 6.48,11.57 L6.48,19.52 L16.26,19.52 L16.26,11.57 C16.26,11.4099992 16.3149995,11.2750006 16.425,11.165 C16.5350005,11.0549995 16.6699992,11 16.83,11 L19.59,11 C19.7500008,11 19.8849995,11.0549995 19.995,11.165 C20.1050006,11.2750006 20.16,11.4099992 20.16,11.57 L20.16,31.43 C20.16,31.5900008 20.1050006,31.7249994 19.995,31.835 C19.8849995,31.9450005 19.7500008,32 19.59,32 L16.83,32 C16.6699992,32 16.5350005,31.9450005 16.425,31.835 C16.3149995,31.7249994 16.26,31.5900008 16.26,31.43 L16.26,23.15 L6.48,23.15 L6.48,31.43 C6.48,31.5900008 6.42500055,31.7249994 6.315,31.835 C6.20499945,31.9450005 6.0700008,32 5.91,32 L3.12,32 C2.9599992,32 2.82500055,31.9450005 2.715,31.835 C2.60499945,31.7249994 2.55,31.5900008 2.55,31.43 L2.55,11.57 Z M24.03,21.53 C24.03,20.0299925 24.3099972,18.6200066 24.87,17.3 C25.4300028,15.9799934 26.1949952,14.8350049 27.165,13.865 C28.1350049,12.8949951 29.2749935,12.1250029 30.585,11.555 C31.8950065,10.9849971 33.2999925,10.7 34.8,10.7 C36.3000075,10.7 37.7049934,10.9849971 39.015,11.555 C40.3250065,12.1250029 41.4699951,12.8949951 42.45,13.865 C43.4300049,14.8350049 44.1999972,15.9799934 44.76,17.3 C45.3200028,18.6200066 45.6,20.0299925 45.6,21.53 C45.6,23.0300075 45.3200028,24.4349935 44.76,25.745 C44.1999972,27.0550066 43.4300049,28.1949952 42.45,29.165 C41.4699951,30.1350049 40.3250065,30.8999972 39.015,31.46 C37.7049934,32.0200028 36.3000075,32.3 34.8,32.3 C33.2999925,32.3 31.8950065,32.0200028 30.585,31.46 C29.2749935,30.8999972 28.1350049,30.1350049 27.165,29.165 C26.1949952,28.1949952 25.4300028,27.0550066 24.87,25.745 C24.3099972,24.4349935 24.03,23.0300075 24.03,21.53 Z M27.93,21.53 C27.93,22.4700047 28.1099982,23.3599958 28.47,24.2 C28.8300018,25.0400042 29.3199969,25.7699969 29.94,26.39 C30.5600031,27.0100031 31.2899958,27.4999982 32.13,27.86 C32.9700042,28.2200018 33.8599953,28.4 34.8,28.4 C35.7400047,28.4 36.6299958,28.2200018 37.47,27.86 C38.3100042,27.4999982 39.0449969,27.0100031 39.675,26.39 C40.3050032,25.7699969 40.7999982,25.0400042 41.16,24.2 C41.5200018,23.3599958 41.7,22.4700047 41.7,21.53 C41.7,20.5899953 41.5200018,19.7000042 41.16,18.86 C40.7999982,18.0199958 40.3050032,17.2850032 39.675,16.655 C39.0449969,16.0249969 38.3100042,15.5250018 37.47,15.155 C36.6299958,14.7849981 35.7400047,14.6 34.8,14.6 C33.8599953,14.6 32.9700042,14.7849981 32.13,15.155 C31.2899958,15.5250018 30.5600031,16.0249969 29.94,16.655 C29.3199969,17.2850032 28.8300018,18.0199958 28.47,18.86 C28.1099982,19.7000042 27.93,20.5899953 27.93,21.53 Z M51.9,11.15 C51.9200001,11.0299994 51.9749996,10.9250005 52.065,10.835 C52.1550005,10.7449995 52.2799992,10.7 52.44,10.7 L52.92,10.7 C53.1600012,10.7 53.3299995,10.799999 53.43,11 L60.03,25.16 L60.12,25.16 L66.72,11 C66.8200005,10.799999 66.9899988,10.7 67.23,10.7 L67.71,10.7 C67.8700008,10.7 67.9949996,10.7449995 68.085,10.835 C68.1750004,10.9250005 68.2299999,11.0299994 68.25,11.15 L71.79,31.31 C71.8300002,31.5300011 71.8000005,31.6999994 71.7,31.82 C71.5999995,31.9400006 71.450001,32 71.25,32 L68.52,32 C68.3799993,32 68.2600005,31.9500005 68.16,31.85 C68.0599995,31.7499995 67.9900002,31.6500005 67.95,31.55 L66.18,20.18 L66.09,20.18 L60.84,31.97 C60.7599996,32.1900011 60.5900013,32.3 60.33,32.3 L59.79,32.3 C59.5499988,32.3 59.3800005,32.1900011 59.28,31.97 L53.97,20.18 L53.88,20.18 L52.14,31.55 C52.1199999,31.6500005 52.0600005,31.7499995 51.96,31.85 C51.8599995,31.9500005 51.7400007,32 51.6,32 L48.9,32 C48.4599978,32 48.2699997,31.7700023 48.33,31.31 L51.9,11.15 Z M73.77,32 C73.5499989,32 73.3850005,31.9200008 73.275,31.76 C73.1649994,31.5999992 73.1599995,31.420001 73.26,31.22 L82.59,11.03 C82.6900005,10.8099989 82.8599988,10.7 83.1,10.7 L83.4,10.7 C83.5600008,10.7 83.6749996,10.7299997 83.745,10.79 C83.8150003,10.8500003 83.8699998,10.9299995 83.91,11.03 L93.15,31.22 C93.2500005,31.420001 93.2450005,31.5999992 93.135,31.76 C93.0249994,31.9200008 92.8600011,32 92.64,32 L90.03,32 C89.8099989,32 89.6350006,31.9550005 89.505,31.865 C89.3749993,31.7749996 89.2600005,31.6200011 89.16,31.4 L87.69,28.16 L78.72,28.16 L77.25,31.4 C77.1899997,31.5600008 77.0900007,31.6999994 76.95,31.82 C76.8099993,31.9400006 76.6200012,32 76.38,32 L73.77,32 Z M86.22,24.83 L83.22,18.23 L83.13,18.23 L80.19,24.83 L86.22,24.83 Z M95.79,11.57 C95.79,11.4099992 95.8449995,11.2750006 95.955,11.165 C96.0650006,11.0549995 96.1999992,11 96.36,11 L103.41,11 C104.330005,11 105.199996,11.1749983 106.02,11.525 C106.840004,11.8750018 107.554997,12.349997 108.165,12.95 C108.775003,13.550003 109.254998,14.254996 109.605,15.065 C109.955002,15.8750041 110.13,16.7299955 110.13,17.63 C110.13,18.5700047 109.955002,19.4449959 109.605,20.255 C109.254998,21.065004 108.775003,21.7799969 108.165,22.4 C107.554997,23.0200031 106.845004,23.5049982 106.035,23.855 C105.224996,24.2050018 104.360005,24.38 103.44,24.38 L99.69,24.38 L99.69,31.43 C99.69,31.5900008 99.6350006,31.7249994 99.525,31.835 C99.4149995,31.9450005 99.2800008,32 99.12,32 L96.36,32 C96.1999992,32 96.0650006,31.9450005 95.955,31.835 C95.8449995,31.7249994 95.79,31.5900008 95.79,31.43 L95.79,11.57 Z M103.29,20.72 C103.710002,20.72 104.099998,20.6400008 104.46,20.48 C104.820002,20.3199992 105.134999,20.1000014 105.405,19.82 C105.675001,19.5399986 105.884999,19.2100019 106.035,18.83 C106.185001,18.4499981 106.26,18.0400022 106.26,17.6 C106.26,17.1799979 106.185001,16.7950017 106.035,16.445 C105.884999,16.0949983 105.675001,15.7900013 105.405,15.53 C105.134999,15.2699987 104.820002,15.0650007 104.46,14.915 C104.099998,14.7649993 103.710002,14.69 103.29,14.69 L99.69,14.69 L99.69,20.72 L103.29,20.72 Z" id="HOMAP"></path>
                <path d="M8.0371999,38.8685001 L9.37099988,38.8685001 L9.37099988,47 L8.0371999,47 L8.0371999,43.4081001 L4.21129996,43.4081001 L4.21129996,47 L2.87749999,47 L2.87749999,38.8685001 L4.21129996,38.8685001 L4.21129996,42.3785001 L8.0371999,42.3785001 L8.0371999,38.8685001 Z M15.3145998,45.3971 C15.7046017,45.0070981 15.8995998,44.4650035 15.8995998,43.7708001 C15.8995998,43.0765966 15.7104517,42.536452 15.3321498,42.1503501 C14.9538479,41.7642482 14.4956025,41.5712001 13.9573998,41.5712001 C13.4191971,41.5712001 12.9668017,41.7642482 12.6001998,42.1503501 C12.233598,42.536452 12.0502998,43.0785466 12.0502998,43.7766501 C12.0502998,44.4747535 12.229698,45.0168481 12.5884998,45.40295 C12.9473016,45.789052 13.3938471,45.9821 13.9281498,45.9821 C14.4624525,45.9821 14.9245978,45.787102 15.3145998,45.3971 Z M13.9222998,47.1053 C12.9862951,47.1053 12.2141029,46.7991531 11.6056998,46.18685 C10.9972968,45.574547 10.6930999,44.771155 10.6930999,43.7766501 C10.6930999,42.7821451 11.0070467,41.9787531 11.6349498,41.3664501 C12.262853,40.754147 13.0447951,40.4480001 13.9807998,40.4480001 C14.9168045,40.4480001 15.6987466,40.754147 16.3266498,41.3664501 C16.9545529,41.9787531 17.2684998,42.7801951 17.2684998,43.7708001 C17.2684998,44.761405 16.946753,45.5647969 16.3032498,46.181 C15.6597466,46.7972031 14.8661045,47.1053 13.9222998,47.1053 Z M21.7144997,41.6414001 L20.1466997,41.6414001 L20.1466997,45.2099 C20.1466997,45.4517012 20.2032491,45.6252495 20.3163497,45.73055 C20.4294503,45.8358505 20.6224983,45.8885 20.8954997,45.8885 L21.7144997,45.8885 L21.7144997,47 L20.6614997,47 C19.4212935,47 18.8011997,46.403306 18.8011997,45.2099 L18.8011997,41.6414001 L18.0406997,41.6414001 L18.0406997,40.5533001 L18.8011997,40.5533001 L18.8011997,38.9504001 L20.1466997,38.9504001 L20.1466997,40.5533001 L21.7144997,40.5533001 L21.7144997,41.6414001 Z M25.6573996,47.1053 C24.7213949,47.1053 23.9609026,46.801103 23.3758997,46.1927 C22.7908967,45.584297 22.4983997,44.7770051 22.4983997,43.7708001 C22.4983997,42.764595 22.7947967,41.9592531 23.3875997,41.3547501 C23.9804026,40.7502471 24.7467449,40.4480001 25.6866496,40.4480001 C26.6265543,40.4480001 27.3889967,40.7385472 27.9739996,41.3196501 C28.5590025,41.900753 28.8514996,42.6592954 28.8514996,43.5953001 C28.8514996,43.8215012 28.8358997,44.0320991 28.8046996,44.2271 L23.8672996,44.2271 C23.8984998,44.7653027 24.079848,45.1923484 24.4113496,45.50825 C24.7428513,45.8241516 25.1581971,45.9821 25.6573996,45.9821 C26.3828032,45.9821 26.8936981,45.681803 27.1900996,45.0812 L28.6291996,45.0812 C28.4341986,45.674003 28.0793021,46.1595481 27.5644996,46.53785 C27.049697,46.9161519 26.4140034,47.1053 25.6573996,47.1053 Z M27.4591996,43.3145001 C27.4513995,42.7840974 27.2759013,42.3609517 26.9326996,42.0450501 C26.5894979,41.7291485 26.1722021,41.5712001 25.6807996,41.5712001 C25.1893972,41.5712001 24.7779513,41.7291485 24.4464496,42.0450501 C24.114948,42.3609517 23.9257999,42.7840974 23.8789996,43.3145001 L27.4591996,43.3145001 Z M30.1618995,47 L30.1618995,38.3420001 L31.4956995,38.3420001 L31.4956995,47 L30.1618995,47 Z M45.3250993,38.8685001 L45.3250993,47 L43.9912993,47 L43.9912993,41.4308001 L41.5108994,47 L40.5865994,47 L38.0944994,41.4308001 L38.0944994,47 L36.7606994,47 L36.7606994,38.8685001 L38.1997994,38.8685001 L41.0545994,45.245 L43.8976993,38.8685001 L45.3250993,38.8685001 Z M51.3271992,45.362 C51.7172011,44.964198 51.9121992,44.4338034 51.9121992,43.7708001 C51.9121992,43.1077967 51.7191511,42.581302 51.3330492,42.1913001 C50.9469473,41.8012981 50.4887019,41.6063001 49.9582992,41.6063001 C49.4278966,41.6063001 48.9696512,41.7973982 48.5835492,42.1796001 C48.1974473,42.561802 48.0043993,43.0843967 48.0043993,43.7474001 C48.0043993,44.4104034 48.1974473,44.942748 48.5835492,45.34445 C48.9696512,45.746152 49.4278966,45.947 49.9582992,45.947 C50.4887019,45.947 50.9449973,45.752002 51.3271992,45.362 Z M49.6774992,47.1053 C48.8194949,47.1053 48.0980022,46.7913531 47.5129993,46.16345 C46.9279963,45.5355469 46.6354993,44.7321549 46.6354993,43.7532501 C46.6354993,42.7743452 46.9260464,41.9787531 47.5071493,41.3664501 C48.0882522,40.754147 48.8116949,40.4480001 49.6774992,40.4480001 C50.1845017,40.4480001 50.6310473,40.563049 51.0171492,40.7931501 C51.4032511,41.0232512 51.7015981,41.3254982 51.9121992,41.6999001 L51.9121992,40.5533001 L53.2576992,40.5533001 L53.2576992,47 L51.9121992,47 L51.9121992,45.7949 C51.6937981,46.192702 51.3935011,46.5105488 51.0112992,46.74845 C50.6290973,46.9863512 50.1845017,47.1053 49.6774992,47.1053 Z M56.3464991,40.5533001 L56.3464991,41.6765001 C56.7599012,40.857496 57.4033947,40.4480001 58.2769991,40.4480001 L58.2769991,41.8286001 L57.9376991,41.8286001 C57.4150965,41.8286001 57.0192504,41.9611988 56.7501491,42.2264001 C56.4810478,42.4916014 56.3464991,42.9517968 56.3464991,43.6070001 L56.3464991,47 L55.0126991,47 L55.0126991,40.5533001 L56.3464991,40.5533001 Z M60.839299,47 L59.5054991,47 L59.5054991,38.3420001 L60.839299,38.3420001 L60.839299,43.3730001 L63.179299,40.5533001 L65.027899,40.5533001 L62.056099,43.7825001 L65.027899,47 L63.226099,47 L60.839299,44.2271 L60.839299,47 Z M68.7016989,47.1053 C67.7656942,47.1053 67.0052019,46.801103 66.4201989,46.1927 C65.835196,45.584297 65.542699,44.7770051 65.542699,43.7708001 C65.542699,42.764595 65.839096,41.9592531 66.4318989,41.3547501 C67.0247019,40.7502471 67.7910442,40.4480001 68.7309489,40.4480001 C69.6708536,40.4480001 70.433296,40.7385472 71.0182989,41.3196501 C71.6033018,41.900753 71.8957989,42.6592954 71.8957989,43.5953001 C71.8957989,43.8215012 71.880199,44.0320991 71.8489989,44.2271 L66.9115989,44.2271 C66.9427991,44.7653027 67.1241473,45.1923484 67.4556489,45.50825 C67.7871506,45.8241516 68.2024964,45.9821 68.7016989,45.9821 C69.4271025,45.9821 69.9379974,45.681803 70.2343989,45.0812 L71.6734989,45.0812 C71.4784979,45.674003 71.1236014,46.1595481 70.6087989,46.53785 C70.0939963,46.9161519 69.4583027,47.1053 68.7016989,47.1053 Z M70.5034989,43.3145001 C70.4956988,42.7840974 70.3202006,42.3609517 69.9769989,42.0450501 C69.6337972,41.7291485 69.2165014,41.5712001 68.7250989,41.5712001 C68.2336965,41.5712001 67.8222506,41.7291485 67.4907489,42.0450501 C67.1592473,42.3609517 66.9700992,42.7840974 66.9232989,43.3145001 L70.5034989,43.3145001 Z M76.3300988,41.6414001 L74.7622988,41.6414001 L74.7622988,45.2099 C74.7622988,45.4517012 74.8188482,45.6252495 74.9319488,45.73055 C75.0450494,45.8358505 75.2380974,45.8885 75.5110988,45.8885 L76.3300988,45.8885 L76.3300988,47 L75.2770988,47 C74.0368926,47 73.4167988,46.403306 73.4167988,45.2099 L73.4167988,41.6414001 L72.6562988,41.6414001 L72.6562988,40.5533001 L73.4167988,40.5533001 L73.4167988,38.9504001 L74.7622988,38.9504001 L74.7622988,40.5533001 L76.3300988,40.5533001 L76.3300988,41.6414001 Z M82.2268987,45.3503 C82.6169006,44.944698 82.8118987,44.4104034 82.8118987,43.7474001 C82.8118987,43.0843967 82.6188506,42.561802 82.2327487,42.1796001 C81.8466468,41.7973982 81.3864514,41.6063001 80.8521487,41.6063001 C80.3178461,41.6063001 79.8576507,41.8012981 79.4715487,42.1913001 C79.0854468,42.581302 78.8923987,43.1077967 78.8923987,43.7708001 C78.8923987,44.4338034 79.0854468,44.9622481 79.4715487,45.35615 C79.8576507,45.750052 80.3158961,45.947 80.8462987,45.947 C81.3767014,45.947 81.8368967,45.748102 82.2268987,45.3503 Z M81.1387987,40.4480001 C82.004603,40.4480001 82.7260958,40.754147 83.3032987,41.3664501 C83.8805016,41.9787531 84.1690987,42.7743452 84.1690987,43.7532501 C84.1690987,44.7321549 83.8785516,45.5355469 83.2974487,46.16345 C82.7163458,46.7913531 81.996803,47.1053 81.1387987,47.1053 C80.6317962,47.1053 80.1872006,46.9863512 79.8049987,46.74845 C79.4227968,46.5105488 79.1185999,46.192702 78.8923987,45.7949 L78.8923987,50.0654 L77.5585988,50.0654 L77.5585988,40.5533001 L78.8923987,40.5533001 L78.8923987,41.6999001 C79.1107998,41.3254982 79.4130468,41.0232512 79.7991487,40.7931501 C80.1852507,40.563049 80.6317962,40.4480001 81.1387987,40.4480001 Z M85.4911986,47 L85.4911986,38.3420001 L86.8249986,38.3420001 L86.8249986,47 L85.4911986,47 Z M92.8270985,45.362 C93.2171005,44.964198 93.4120985,44.4338034 93.4120985,43.7708001 C93.4120985,43.1077967 93.2190504,42.581302 92.8329485,42.1913001 C92.4468466,41.8012981 91.9886012,41.6063001 91.4581985,41.6063001 C90.9277959,41.6063001 90.4695505,41.7973982 90.0834486,42.1796001 C89.6973466,42.561802 89.5042986,43.0843967 89.5042986,43.7474001 C89.5042986,44.4104034 89.6973466,44.942748 90.0834486,45.34445 C90.4695505,45.746152 90.9277959,45.947 91.4581985,45.947 C91.9886012,45.947 92.4448966,45.752002 92.8270985,45.362 Z M91.1773985,47.1053 C90.3193943,47.1053 89.5979015,46.7913531 89.0128986,46.16345 C88.4278957,45.5355469 88.1353986,44.7321549 88.1353986,43.7532501 C88.1353986,42.7743452 88.4259457,41.9787531 89.0070486,41.3664501 C89.5881515,40.754147 90.3115942,40.4480001 91.1773985,40.4480001 C91.6844011,40.4480001 92.1309466,40.563049 92.5170485,40.7931501 C92.9031504,41.0232512 93.2014975,41.3254982 93.4120985,41.6999001 L93.4120985,40.5533001 L94.7575985,40.5533001 L94.7575985,47 L93.4120985,47 L93.4120985,45.7949 C93.1936974,46.192702 92.8934004,46.5105488 92.5111985,46.74845 C92.1289966,46.9863512 91.6844011,47.1053 91.1773985,47.1053 Z M99.2269984,47.1053 C98.2909938,47.1053 97.5305014,46.801103 96.9454985,46.1927 C96.3604955,45.584297 96.0679985,44.778955 96.0679985,43.7766501 C96.0679985,42.7743451 96.3624455,41.9690031 96.9513485,41.3606001 C97.5402514,40.7521971 98.2987938,40.4480001 99.2269984,40.4480001 C100.007002,40.4480001 100.652446,40.6332483 101.163348,41.0037501 C101.674251,41.3742519 102.019397,41.9026967 102.198798,42.5891001 L100.759698,42.5891001 C100.517897,41.9104967 100.007002,41.5712001 99.2269984,41.5712001 C98.6809957,41.5712001 98.24615,41.7642482 97.9224484,42.1503501 C97.5987468,42.536452 97.4368984,43.0765966 97.4368984,43.7708001 C97.4368984,44.4650035 97.5987468,45.0070981 97.9224484,45.3971 C98.24615,45.787102 98.6809957,45.9821 99.2269984,45.9821 C99.9992023,45.9821 100.510097,45.6428034 100.759698,44.9642 L102.198798,44.9642 C102.011597,45.6194033 101.660601,46.1400481 101.145798,46.52615 C100.630996,46.9122519 99.9914022,47.1053 99.2269984,47.1053 Z M106.246998,47.1053 C105.310994,47.1053 104.550501,46.801103 103.965498,46.1927 C103.380495,45.584297 103.087998,44.7770051 103.087998,43.7708001 C103.087998,42.764595 103.384395,41.9592531 103.977198,41.3547501 C104.570001,40.7502471 105.336344,40.4480001 106.276248,40.4480001 C107.216153,40.4480001 107.978595,40.7385472 108.563598,41.3196501 C109.148601,41.900753 109.441098,42.6592954 109.441098,43.5953001 C109.441098,43.8215012 109.425498,44.0320991 109.394298,44.2271 L104.456898,44.2271 C104.488098,44.7653027 104.669447,45.1923484 105.000948,45.50825 C105.33245,45.8241516 105.747796,45.9821 106.246998,45.9821 C106.972402,45.9821 107.483297,45.681803 107.779698,45.0812 L109.218798,45.0812 C109.023797,45.674003 108.668901,46.1595481 108.154098,46.53785 C107.639296,46.9161519 107.003602,47.1053 106.246998,47.1053 Z M108.048798,43.3145001 C108.040998,42.7840974 107.8655,42.3609517 107.522298,42.0450501 C107.179097,41.7291485 106.761801,41.5712001 106.270398,41.5712001 C105.778996,41.5712001 105.36755,41.7291485 105.036048,42.0450501 C104.704547,42.3609517 104.515399,42.7840974 104.468598,43.3145001 L108.048798,43.3145001 Z" id="Hotel-Marketplace"></path>
            </g>
        </g>
    </g>
</svg>