<?xml version="1.0" encoding="UTF-8"?>
<svg width="46px" height="46px" viewBox="0 0 46 46" version="1.1" xmlns="http://www.w3.org/2000/svg" xmlns:xlink="http://www.w3.org/1999/xlink">
    <!-- Generator: Sketch 49 (51002) - http://www.bohemiancoding.com/sketch -->
    <title>compass</title>
    <desc>Created with Sketch.</desc>
    <defs></defs>
    <g id="Page-1" stroke="none" stroke-width="1" fill="none" fill-rule="evenodd">
        <g id="compass" fill="#5191FA" fill-rule="nonzero">
            <path d="M22.7320859,36.3867188 C22.4342539,36.3867188 21.4611563,36.2941797 21.0182266,35.1436406 L18.1955156,27.8044844 L10.765168,24.9466445 C10.0849609,24.6850195 9.63008203,24.0384141 9.61382031,23.3096914 C9.59746875,22.5811484 10.0229688,21.9147773 10.6907773,21.6229648 L30.6360898,12.9081211 C31.3118945,12.6129844 32.0997344,12.7605078 32.622625,13.2806133 C33.1456055,13.8008086 33.2976211,14.5876602 33.0059883,15.2651719 L24.3809883,35.3003281 C24.0983398,35.9570859 23.453082,36.3837539 22.7380156,36.3867188 C22.7360391,36.3867188 22.7339727,36.3867188 22.7320859,36.3867188 Z M16.1403398,23.1636055 L20.2309258,24.7369492 C20.7054805,24.9194219 21.0804883,25.2945195 21.2629609,25.7690742 C21.6915156,26.8833164 22.2755898,28.402125 22.8239961,29.828125 L27.9060977,18.0227461 L16.1403398,23.1636055 Z M34.9008828,42.6853047 C35.7496367,42.1710391 36.0209648,41.0662305 35.5067891,40.2173867 C34.9925234,39.3684531 33.8877148,39.0973047 33.0388711,39.6114805 C30.02075,41.4398906 26.5492773,42.40625 23,42.40625 C12.2993398,42.40625 3.59375,33.7006602 3.59375,23 C3.59375,12.2993398 12.2993398,3.59375 23,3.59375 C33.7006602,3.59375 42.40625,12.2993398 42.40625,23 C42.40625,26.8263555 41.2683789,30.5508281 39.1156328,33.7708281 C38.5639922,34.5958633 38.7857266,35.7118125 39.6106719,36.2632734 C40.4358867,36.8149141 41.5516563,36.5931797 42.1031172,35.7682344 C44.6525234,31.9550859 46,27.5398047 46,23 C46,16.8564844 43.6075508,11.0806992 39.2635156,6.73648437 C34.9193008,2.39244922 29.1435156,0 23,0 C16.8564844,0 11.0806992,2.39244922 6.73648438,6.73648438 C2.39244922,11.0806992 0,16.8564844 0,23 C0,29.1435156 2.39244922,34.9193008 6.73648438,39.2635156 C11.0806992,43.6075508 16.8564844,46 23,46 C27.2058555,46 31.3210586,44.8537734 34.9008828,42.6853047 Z" id="Shape"></path>
        </g>
    </g>
</svg>