<?xml version="1.0" encoding="UTF-8"?>
<svg width="179px" height="40px" viewBox="0 0 179 40" version="1.1" xmlns="http://www.w3.org/2000/svg" xmlns:xlink="http://www.w3.org/1999/xlink">
    <!-- Generator: Sketch 49 (51002) - http://www.bohemiancoding.com/sketch -->
    <title>Group 3</title>
    <desc>Created with Sketch.</desc>
    <defs></defs>
    <g id="Page-1" stroke="none" stroke-width="1" fill="none" fill-rule="evenodd">
        <g id="Group-3">
            <g id="Group">
                <circle id="Oval-2" stroke="#5191FA" stroke-width="2" cx="20" cy="20" r="19"></circle>
                <path d="M22.3106383,26.612766 C22.6553208,26.612766 22.9361691,26.7276584 23.1659574,26.9574468 C23.4042565,27.1957459 23.5234043,27.4765941 23.5234043,27.8 C23.5234043,28.1319166 23.4042565,28.4170201 23.1659574,28.6553191 C22.9361691,28.8851075 22.6553208,29 22.3234043,29 C20.8468012,29 19.5957499,28.4808563 18.5574468,27.4425532 C17.5191437,26.4042501 17,25.1531988 17,23.6893617 L17,12.187234 C17,11.8638282 17.1148925,11.5829799 17.3446809,11.3446809 C17.5829799,11.1148925 17.8680834,11 18.2,11 C18.5234059,11 18.8042541,11.1148925 19.0425532,11.3446809 C19.2723416,11.5829799 19.387234,11.8638282 19.387234,12.187234 L19.387234,16.1446809 L21.3148936,16.1446809 C21.6468102,16.1446809 21.9276584,16.2595733 22.1574468,16.4893617 C22.3957459,16.7191501 22.5148936,16.9999983 22.5148936,17.3319149 C22.5148936,17.6638314 22.3957459,17.9446797 22.1574468,18.1744681 C21.9276584,18.4127671 21.6468102,18.5319149 21.3148936,18.5319149 L19.387234,18.5319149 L19.387234,23.6893617 C19.387234,24.4978764 19.6723376,25.1872312 20.2425532,25.7574468 C20.8127688,26.3276624 21.5021236,26.612766 22.3106383,26.612766 Z" id="t" fill="#5191FA"></path>
            </g>
            <path d="M64.872,10.468 L59.432,10.468 L59.432,32.5 L56.474,32.5 L56.474,10.468 L51,10.468 L51,7.612 L64.872,7.612 L64.872,10.468 Z M75.344,14.242 L73.882,16.622 C73.4966647,16.417999 73.1226685,16.316 72.76,16.316 C72.0573298,16.316 71.4226695,16.6616632 70.856,17.353 C70.2893305,18.0443368 69.8643348,18.9509944 69.581,20.073 C69.2976652,21.1950056 69.156,23.2179854 69.156,26.142 L69.156,32.5 L66.3,32.5 L66.3,13.97 L69.156,13.97 L69.156,15.976 C69.7226695,15.1373291 70.2949971,14.514002 70.873,14.106 C71.4510029,13.697998 72.1083297,13.494 72.845,13.494 C73.5816703,13.494 74.414662,13.7433308 75.344,14.242 Z M96.22,32.5 L93.466,32.5 L93.466,29.78 C91.4486566,32.0013444 89.1253465,33.112 86.496,33.112 C83.8666535,33.112 81.6170094,32.1430097 79.747,30.205 C77.8769907,28.2669903 76.942,25.9550134 76.942,23.269 C76.942,20.5829866 77.8826573,18.2823429 79.764,16.367 C81.6453427,14.4516571 83.9403198,13.494 86.649,13.494 C89.3576802,13.494 91.6299908,14.5933223 93.466,16.792 L93.466,13.97 L96.22,13.97 L96.22,32.5 Z M86.7,30.494 C88.5813427,30.494 90.2019932,29.8140068 91.562,28.454 C92.9220068,27.0939932 93.602,25.3996768 93.602,23.371 C93.602,21.3423232 92.93334,19.6423402 91.596,18.271 C90.25866,16.8996598 88.6210097,16.214 86.683,16.214 C84.7449903,16.214 83.10734,16.9223263 81.77,18.339 C80.43266,19.7556738 79.764,21.4273237 79.764,23.354 C79.764,25.2806763 80.4439932,26.9523263 81.804,28.369 C83.1640068,29.7856738 84.7959905,30.494 86.7,30.494 Z M116.858,13.97 L108.392,33.112 L107.712,33.112 L99.178,13.97 L102.136,13.97 L108.018,27.366 L113.9,13.97 L116.858,13.97 Z M138.074,23.728 L121.822,23.728 C121.935334,25.7680102 122.620994,27.4056605 123.879,28.641 C125.137006,29.8763395 126.638658,30.494 128.384,30.494 C131.353348,30.494 133.619992,29.0320146 135.184,26.108 L137.564,27.332 C136.498661,29.3040099 135.240674,30.7603286 133.79,31.701 C132.339326,32.6416714 130.605343,33.112 128.588,33.112 C125.799986,33.112 123.499342,32.1543429 121.686,30.239 C119.872658,28.3236571 118.966,26.0173468 118.966,23.32 C118.966,20.6226532 119.878324,18.3106763 121.703,16.384 C123.527676,14.4573237 125.788653,13.494 128.486,13.494 C131.183347,13.494 133.438658,14.4063242 135.252,16.231 C137.065342,18.0556758 138.006,20.5546508 138.074,23.728 Z M134.946,21.246 C134.605998,19.6593254 133.835339,18.4240044 132.634,17.54 C131.432661,16.6559956 130.050008,16.214 128.486,16.214 C125.312651,16.214 123.204672,17.8913166 122.162,21.246 L134.946,21.246 Z M144.364,32.5 L141.576,32.5 L141.576,7 L144.364,7 L144.364,32.5 Z M166.974,23.728 L150.722,23.728 C150.835334,25.7680102 151.520994,27.4056605 152.779,28.641 C154.037006,29.8763395 155.538658,30.494 157.284,30.494 C160.253348,30.494 162.519992,29.0320146 164.084,26.108 L166.464,27.332 C165.398661,29.3040099 164.140674,30.7603286 162.69,31.701 C161.239326,32.6416714 159.505343,33.112 157.488,33.112 C154.699986,33.112 152.399342,32.1543429 150.586,30.239 C148.772658,28.3236571 147.866,26.0173468 147.866,23.32 C147.866,20.6226532 148.778324,18.3106763 150.603,16.384 C152.427676,14.4573237 154.688653,13.494 157.386,13.494 C160.083347,13.494 162.338658,14.4063242 164.152,16.231 C165.965342,18.0556758 166.906,20.5546508 166.974,23.728 Z M163.846,21.246 C163.505998,19.6593254 162.735339,18.4240044 161.534,17.54 C160.332661,16.6559956 158.950008,16.214 157.386,16.214 C154.212651,16.214 152.104672,17.8913166 151.062,21.246 L163.846,21.246 Z M178.636,14.242 L177.174,16.622 C176.788665,16.417999 176.414668,16.316 176.052,16.316 C175.34933,16.316 174.714669,16.6616632 174.148,17.353 C173.58133,18.0443368 173.156335,18.9509944 172.873,20.073 C172.589665,21.1950056 172.448,23.2179854 172.448,26.142 L172.448,32.5 L169.592,32.5 L169.592,13.97 L172.448,13.97 L172.448,15.976 C173.014669,15.1373291 173.586997,14.514002 174.165,14.106 C174.743003,13.697998 175.40033,13.494 176.137,13.494 C176.87367,13.494 177.706662,13.7433308 178.636,14.242 Z" id="Traveler" fill="#1A2B48"></path>
        </g>
    </g>
</svg>