<?xml version="1.0" encoding="UTF-8"?>
<svg width="40px" height="40px" viewBox="0 0 40 40" version="1.1" xmlns="http://www.w3.org/2000/svg" xmlns:xlink="http://www.w3.org/1999/xlink">
    <!-- Generator: Sketch 49 (51002) - http://www.bohemiancoding.com/sketch -->
    <title>compass</title>
    <desc>Created with Sketch.</desc>
    <defs>
        <linearGradient x1="0%" y1="50%" x2="100%" y2="50%" id="linearGradient-1">
            <stop stop-color="#00F2FE" offset="0%"></stop>
            <stop stop-color="#03EFFE" offset="2.1%"></stop>
            <stop stop-color="#24D2FE" offset="29.3%"></stop>
            <stop stop-color="#3CBDFE" offset="55.4%"></stop>
            <stop stop-color="#4AB0FE" offset="79.6%"></stop>
            <stop stop-color="#4FACFE" offset="100%"></stop>
        </linearGradient>
    </defs>
    <g id="Page-1" stroke="none" stroke-width="1" fill="none" fill-rule="evenodd">
        <g id="compass" fill="url(#linearGradient-1)" fill-rule="nonzero">
            <path d="M19.7670313,31.640625 C19.5080469,31.640625 18.661875,31.5601562 18.2767188,30.5596875 L15.8221875,24.1778125 L9.36101562,21.6927344 C8.76953125,21.4652344 8.37398437,20.9029687 8.35984375,20.2692969 C8.345625,19.6357812 8.715625,19.0563281 9.29632812,18.8025781 L26.6400781,11.2244531 C27.2277344,10.9678125 27.9128125,11.0960938 28.3675,11.5483594 C28.8222656,12.0007031 28.9544531,12.6849219 28.7008594,13.2740625 L21.2008594,30.6959375 C20.9550781,31.2670312 20.3939844,31.6380469 19.7721875,31.640625 C19.7704688,31.640625 19.7686719,31.640625 19.7670313,31.640625 Z M14.0350781,20.1422656 L17.5921094,21.5103906 C18.0047656,21.6690625 18.3308594,21.9952344 18.4895312,22.4078906 C18.8621875,23.3767969 19.3700781,24.6975 19.8469531,25.9375 L24.2661719,15.6719531 L14.0350781,20.1422656 Z M30.3485937,37.1176562 C31.0866406,36.6704687 31.3225781,35.7097656 30.8754688,34.9716406 C30.4282813,34.2334375 29.4675781,33.9976562 28.7294531,34.4447656 C26.105,36.0346875 23.0863281,36.875 20,36.875 C10.6950781,36.875 3.125,29.3049219 3.125,20 C3.125,10.6950781 10.6950781,3.125 20,3.125 C29.3049219,3.125 36.875,10.6950781 36.875,20 C36.875,23.3272656 35.8855469,26.5659375 34.0135937,29.3659375 C33.5339063,30.0833594 33.7267188,31.05375 34.4440625,31.5332813 C35.1616406,32.0129687 36.131875,31.8201563 36.6114063,31.1028125 C38.8282813,27.7870312 40,23.9476562 40,20 C40,14.6578125 37.9196094,9.63539062 34.1421875,5.8578125 C30.3646094,2.08039063 25.3421875,0 20,0 C14.6578125,0 9.63539062,2.08039063 5.8578125,5.8578125 C2.08039063,9.63539062 0,14.6578125 0,20 C0,25.3421875 2.08039063,30.3646094 5.8578125,34.1421875 C9.63539062,37.9196094 14.6578125,40 20,40 C23.6572656,40 27.2357031,39.0032813 30.3485937,37.1176562 Z" id="Shape"></path>
        </g>
    </g>
</svg>