<?xml version="1.0" encoding="UTF-8"?>
<svg width="7px" height="18px" viewBox="0 0 7 18" version="1.1" xmlns="http://www.w3.org/2000/svg" xmlns:xlink="http://www.w3.org/1999/xlink">
    <!-- Generator: Sketch 49 (51002) - http://www.bohemiancoding.com/sketch -->
    <title>t</title>
    <desc>Created with Sketch.</desc>
    <defs></defs>
    <g id="Page-1" stroke="none" stroke-width="1" fill="none" fill-rule="evenodd">
        <g id="Group-3" transform="translate(-17.000000, -11.000000)" fill="#5191FA">
            <g id="Group">
                <path d="M22.3106383,26.612766 C22.6553208,26.612766 22.9361691,26.7276584 23.1659574,26.9574468 C23.4042565,27.1957459 23.5234043,27.4765941 23.5234043,27.8 C23.5234043,28.1319166 23.4042565,28.4170201 23.1659574,28.6553191 C22.9361691,28.8851075 22.6553208,29 22.3234043,29 C20.8468012,29 19.5957499,28.4808563 18.5574468,27.4425532 C17.5191437,26.4042501 17,25.1531988 17,23.6893617 L17,12.187234 C17,11.8638282 17.1148925,11.5829799 17.3446809,11.3446809 C17.5829799,11.1148925 17.8680834,11 18.2,11 C18.5234059,11 18.8042541,11.1148925 19.0425532,11.3446809 C19.2723416,11.5829799 19.387234,11.8638282 19.387234,12.187234 L19.387234,16.1446809 L21.3148936,16.1446809 C21.6468102,16.1446809 21.9276584,16.2595733 22.1574468,16.4893617 C22.3957459,16.7191501 22.5148936,16.9999983 22.5148936,17.3319149 C22.5148936,17.6638314 22.3957459,17.9446797 22.1574468,18.1744681 C21.9276584,18.4127671 21.6468102,18.5319149 21.3148936,18.5319149 L19.387234,18.5319149 L19.387234,23.6893617 C19.387234,24.4978764 19.6723376,25.1872312 20.2425532,25.7574468 C20.8127688,26.3276624 21.5021236,26.612766 22.3106383,26.612766 Z" id="t"></path>
            </g>
        </g>
    </g>
</svg>