<?xml version="1.0" encoding="UTF-8"?>
<svg width="42px" height="42px" viewBox="0 0 42 42" version="1.1" xmlns="http://www.w3.org/2000/svg" xmlns:xlink="http://www.w3.org/1999/xlink">
    <!-- Generator: Sketch 49 (51002) - http://www.bohemiancoding.com/sketch -->
    <title>Shape</title>
    <desc>Created with Sketch.</desc>
    <defs></defs>
    <g id="Page-1" stroke="none" stroke-width="1" fill="none" fill-rule="evenodd">
        <g id="compass" fill="#5191FA" fill-rule="nonzero">
            <path d="M31.8660234,38.9735391 C32.6409727,38.5039922 32.888707,37.4952539 32.4192422,36.7202227 C31.9496953,35.9451094 30.940957,35.6975391 30.1659258,36.1670039 C27.41025,37.8364219 24.2406445,38.71875 21,38.71875 C11.229832,38.71875 3.28125,30.770168 3.28125,21 C3.28125,11.229832 11.229832,3.28125 21,3.28125 C30.770168,3.28125 38.71875,11.229832 38.71875,21 C38.71875,24.4936289 37.6798242,27.8942344 35.7142734,30.8342344 C35.2106016,31.5875273 35.4130547,32.6064375 36.1662656,33.1099453 C36.9197227,33.6136172 37.9384687,33.4111641 38.4419766,32.6579531 C40.7696953,29.1763828 42,25.1450391 42,21 C42,15.3907031 39.8155898,10.1171602 35.8492969,6.15070312 C31.8828398,2.18441016 26.6092969,0 21,0 C15.3907031,0 10.1171602,2.18441016 6.15070313,6.15070313 C2.18441016,10.1171602 0,15.3907031 0,21 C0,26.6092969 2.18441016,31.8828398 6.15070313,35.8492969 C10.1171602,39.8155898 15.3907031,42 21,42 C24.8401289,42 28.5974883,40.9534453 31.8660234,38.9735391 Z" id="Shape"></path>
        </g>
    </g>
</svg>