<?xml version="1.0" encoding="UTF-8"?>
<svg width="42px" height="42px" viewBox="0 0 42 42" version="1.1" xmlns="http://www.w3.org/2000/svg" xmlns:xlink="http://www.w3.org/1999/xlink">
    <!-- Generator: Sketch 49 (51002) - http://www.bohemiancoding.com/sketch -->
    <title>compass</title>
    <desc>Created with Sketch.</desc>
    <defs></defs>
    <g id="Page-1" stroke="none" stroke-width="1" fill="none" fill-rule="evenodd">
        <g id="compass" fill="#5191FA">
            <path d="M31.8660234,38.9735391 C32.6409727,38.5039922 32.888707,37.4952539 32.4192422,36.7202227 C31.9496953,35.9451094 30.940957,35.6975391 30.1659258,36.1670039 C27.41025,37.8364219 24.2406445,38.71875 21,38.71875 C11.229832,38.71875 3.28125,30.770168 3.28125,21 C3.28125,11.229832 11.229832,3.28125 21,3.28125 C30.770168,3.28125 38.71875,11.229832 38.71875,21 C38.71875,24.4936289 37.6798242,27.8942344 35.7142734,30.8342344 C35.2106016,31.5875273 35.4130547,32.6064375 36.1662656,33.1099453 C36.9197227,33.6136172 37.9384687,33.4111641 38.4419766,32.6579531 C40.7696953,29.1763828 42,25.1450391 42,21 C42,15.3907031 39.8155898,10.1171602 35.8492969,6.15070312 C31.8828398,2.18441016 26.6092969,0 21,0 C15.3907031,0 10.1171602,2.18441016 6.15070313,6.15070313 C2.18441016,10.1171602 0,15.3907031 0,21 C0,26.6092969 2.18441016,31.8828398 6.15070313,35.8492969 C10.1171602,39.8155898 15.3907031,42 21,42 C24.8401289,42 28.5974883,40.9534453 31.8660234,38.9735391 Z" id="Shape" fill-rule="nonzero"></path>
            <path d="M14,23.7988281 L14,11.5820312 C14,11.1484353 14.1582015,10.7734391 14.4746094,10.4570312 C14.7792984,10.1523422 15.142576,10 15.5644531,10 C15.998049,10 16.3789046,10.1523422 16.7070312,10.4570312 C17.0234391,10.7734391 17.1816406,11.1484353 17.1816406,11.5820312 L17.1816406,15.0273438 L24.1601562,15.0273438 C24.5937522,15.0273438 24.9628891,15.1826156 25.2675781,15.4931641 C25.5722671,15.8037125 25.7246094,16.1757791 25.7246094,16.609375 C25.7246094,17.0312521 25.5751968,17.3857408 25.2763672,17.6728516 C24.9775376,17.9599624 24.605471,18.1035156 24.1601562,18.1035156 L17.1816406,18.1035156 L17.1816406,23.8339844 C17.1816406,25.3339919 17.7089791,26.5996042 18.7636719,27.6308594 C19.794927,28.6621145 21.0781173,29.1777344 22.6132812,29.1777344 C24.0429759,29.1777344 25.2148392,28.7558636 26.1289062,27.9121094 C26.4921893,27.5605451 26.8847635,27.3847656 27.3066406,27.3847656 C27.6582049,27.3847656 27.9863266,27.5195299 28.2910156,27.7890625 C28.572267,28.0703139 28.7128906,28.4160136 28.7128906,28.8261719 C28.7128906,29.3417995 28.5253925,29.7871075 28.1503906,30.1621094 C26.6738207,31.5683664 24.8281361,32.2714844 22.6132812,32.2714844 C20.2109255,32.2714844 18.183602,31.4570394 16.53125,29.828125 C14.8437416,28.175773 14,26.1660275 14,23.7988281 Z" id="t"></path>
        </g>
    </g>
</svg>