<?xml version="1.0" encoding="UTF-8"?>
<svg width="50px" height="50px" viewBox="0 0 50 50" version="1.1" xmlns="http://www.w3.org/2000/svg" xmlns:xlink="http://www.w3.org/1999/xlink">
    <!-- Generator: Sketch 49 (51002) - http://www.bohemiancoding.com/sketch -->
    <title>Shape</title>
    <desc>Created with Sketch.</desc>
    <defs></defs>
    <g id="Page-1" stroke="none" stroke-width="1" fill="none" fill-rule="evenodd">
        <g id="compass" fill="#5191FA" fill-rule="nonzero">
            <path d="M24.7087891,39.5507812 C24.3850586,39.5507812 23.3273438,39.4501953 22.8458984,38.1996094 L19.7777344,30.2222656 L11.7012695,27.115918 C10.9619141,26.831543 10.4674805,26.1287109 10.4498047,25.3366211 C10.4320312,24.5447266 10.8945312,23.8204102 11.6204102,23.5032227 L33.3000977,14.0305664 C34.034668,13.7097656 34.8910156,13.8701172 35.459375,14.4354492 C36.027832,15.0008789 36.1930664,15.8561523 35.8760742,16.5925781 L26.5010742,38.3699219 C26.1938477,39.0837891 25.4924805,39.5475586 24.7152344,39.5507812 C24.7130859,39.5507812 24.7108398,39.5507812 24.7087891,39.5507812 Z M17.5438477,25.177832 L21.9901367,26.8879883 C22.505957,27.0863281 22.9135742,27.494043 23.1119141,28.0098633 C23.5777344,29.2209961 24.2125977,30.871875 24.8086914,32.421875 L30.3327148,19.5899414 L17.5438477,25.177832 Z M37.9357422,46.3970703 C38.8583008,45.8380859 39.1532227,44.637207 38.5943359,43.7145508 C38.0353516,42.7917969 36.8344727,42.4970703 35.9118164,43.055957 C32.63125,45.0433594 28.8579102,46.09375 25,46.09375 C13.3688477,46.09375 3.90625,36.6311523 3.90625,25 C3.90625,13.3688477 13.3688477,3.90625 25,3.90625 C36.6311523,3.90625 46.09375,13.3688477 46.09375,25 C46.09375,29.159082 44.8569336,33.2074219 42.5169922,36.7074219 C41.9173828,37.6041992 42.1583984,38.8171875 43.0550781,39.4166016 C43.9520508,40.0162109 45.1648438,39.7751953 45.7642578,38.8785156 C48.5353516,34.7337891 50,29.9345703 50,25 C50,18.3222656 47.3995117,12.0442383 42.6777344,7.32226562 C37.9557617,2.60048828 31.6777344,0 25,0 C18.3222656,0 12.0442383,2.60048828 7.32226562,7.32226562 C2.60048828,12.0442383 0,18.3222656 0,25 C0,31.6777344 2.60048828,37.9557617 7.32226562,42.6777344 C12.0442383,47.3995117 18.3222656,50 25,50 C29.571582,50 34.0446289,48.7541016 37.9357422,46.3970703 Z" id="Shape"></path>
        </g>
    </g>
</svg>