<?xml version="1.0" encoding="UTF-8"?>
<svg width="152px" height="46px" viewBox="0 0 152 46" version="1.1" xmlns="http://www.w3.org/2000/svg" xmlns:xlink="http://www.w3.org/1999/xlink">
    <!-- Generator: Sketch 49 (51002) - http://www.bohemiancoding.com/sketch -->
    <title>Group 2</title>
    <desc>Created with Sketch.</desc>
    <defs></defs>
    <g id="Page-1" stroke="none" stroke-width="1" fill="none" fill-rule="evenodd">
        <g id="Group-2">
            <g id="compass" fill="#5191FA">
                <path d="M34.9008828,42.6853047 C35.7496367,42.1710391 36.0209648,41.0662305 35.5067891,40.2173867 C34.9925234,39.3684531 33.8877148,39.0973047 33.0388711,39.6114805 C30.02075,41.4398906 26.5492773,42.40625 23,42.40625 C12.2993398,42.40625 3.59375,33.7006602 3.59375,23 C3.59375,12.2993398 12.2993398,3.59375 23,3.59375 C33.7006602,3.59375 42.40625,12.2993398 42.40625,23 C42.40625,26.8263555 41.2683789,30.5508281 39.1156328,33.7708281 C38.5639922,34.5958633 38.7857266,35.7118125 39.6106719,36.2632734 C40.4358867,36.8149141 41.5516563,36.5931797 42.1031172,35.7682344 C44.6525234,31.9550859 46,27.5398047 46,23 C46,16.8564844 43.6075508,11.0806992 39.2635156,6.73648437 C34.9193008,2.39244922 29.1435156,0 23,0 C16.8564844,0 11.0806992,2.39244922 6.73648438,6.73648438 C2.39244922,11.0806992 0,16.8564844 0,23 C0,29.1435156 2.39244922,34.9193008 6.73648438,39.2635156 C11.0806992,43.6075508 16.8564844,46 23,46 C27.2058555,46 31.3210586,44.8537734 34.9008828,42.6853047 Z" id="Shape" fill-rule="nonzero"></path>
                <path d="M26.0808511,31.8170213 C26.5404277,31.8170213 26.9148921,31.9702112 27.2212766,32.2765957 C27.5390087,32.5943278 27.6978723,32.9687922 27.6978723,33.4 C27.6978723,33.8425554 27.5390087,34.2226934 27.2212766,34.5404255 C26.9148921,34.84681 26.5404277,35 26.0978723,35 C24.1290683,35 22.4609998,34.3078083 21.0765957,32.9234043 C19.6921917,31.5390002 19,29.8709317 19,27.9191489 L19,12.5829787 C19,12.1517709 19.15319,11.7773066 19.4595745,11.4595745 C19.7773066,11.15319 20.1574446,11 20.6,11 C21.0312078,11 21.4056722,11.15319 21.7234043,11.4595745 C22.0297888,11.7773066 22.1829787,12.1517709 22.1829787,12.5829787 L22.1829787,17.8595745 L24.7531915,17.8595745 C25.1957469,17.8595745 25.5702112,18.0127644 25.8765957,18.3191489 C26.1943278,18.6255334 26.3531915,18.9999978 26.3531915,19.4425532 C26.3531915,19.8851086 26.1943278,20.2595729 25.8765957,20.5659574 C25.5702112,20.8836895 25.1957469,21.0425532 24.7531915,21.0425532 L22.1829787,21.0425532 L22.1829787,27.9191489 C22.1829787,28.9971685 22.5631168,29.9163083 23.3234043,30.6765957 C24.0836917,31.4368832 25.0028315,31.8170213 26.0808511,31.8170213 Z" id="t" stroke="#5191FA" stroke-width="0.6"></path>
            </g>
            <g id="Group" transform="translate(58.000000, 6.000000)" fill="#1A2B48">
                <path d="M0,0.765277778 C0,0.624536333 0.0480567791,0.505787521 0.144171779,0.409027778 C0.240286779,0.312268035 0.358244328,0.263888889 0.498047964,0.263888889 L2.93586168,0.263888889 C3.07566532,0.263888889 3.19362287,0.312268035 3.28973787,0.409027778 C3.38585287,0.505787521 3.43390965,0.624536333 3.43390965,0.765277778 L3.43390965,7.75833333 L11.9793642,7.75833333 L11.9793642,0.765277778 C11.9793642,0.624536333 12.027421,0.505787521 12.123536,0.409027778 C12.219651,0.312268035 12.3376085,0.263888889 12.4774122,0.263888889 L14.8890128,0.263888889 C15.0288165,0.263888889 15.146774,0.312268035 15.242889,0.409027778 C15.339004,0.505787521 15.3870608,0.624536333 15.3870608,0.765277778 L15.3870608,18.2347222 C15.3870608,18.3754637 15.339004,18.4942125 15.242889,18.5909722 C15.146774,18.687732 15.0288165,18.7361111 14.8890128,18.7361111 L12.4774122,18.7361111 C12.3376085,18.7361111 12.219651,18.687732 12.123536,18.5909722 C12.027421,18.4942125 11.9793642,18.3754637 11.9793642,18.2347222 L11.9793642,10.9513889 L3.43390965,10.9513889 L3.43390965,18.2347222 C3.43390965,18.3754637 3.38585287,18.4942125 3.28973787,18.5909722 C3.19362287,18.687732 3.07566532,18.7361111 2.93586168,18.7361111 L0.498047964,18.7361111 C0.358244328,18.7361111 0.240286779,18.687732 0.144171779,18.5909722 C0.0480567791,18.4942125 0,18.3754637 0,18.2347222 L0,0.765277778 Z M18.7685443,9.52638889 C18.7685443,8.20693785 19.013197,6.96667247 19.5025098,5.80555556 C19.9918225,4.64443864 20.6602486,3.63727278 21.5078081,2.78402778 C22.3553677,1.93078277 23.3514537,1.25347473 24.4960959,0.752083333 C25.6407382,0.250691937 26.8683705,0 28.1790296,0 C29.4896887,0 30.7173209,0.250691937 31.8619632,0.752083333 C33.0066055,1.25347473 34.0070602,1.93078277 34.8633575,2.78402778 C35.7196548,3.63727278 36.3924497,4.64443864 36.8817624,5.80555556 C37.3710751,6.96667247 37.6157278,8.20693785 37.6157278,9.52638889 C37.6157278,10.8458399 37.3710751,12.0817072 36.8817624,13.2340278 C36.3924497,14.3863484 35.7196548,15.3891161 34.8633575,16.2423611 C34.0070602,17.0956061 33.0066055,17.7685161 31.8619632,18.2611111 C30.7173209,18.7537062 29.4896887,19 28.1790296,19 C26.8683705,19 25.6407382,18.7537062 24.4960959,18.2611111 C23.3514537,17.7685161 22.3553677,17.0956061 21.5078081,16.2423611 C20.6602486,15.3891161 19.9918225,14.3863484 19.5025098,13.2340278 C19.013197,12.0817072 18.7685443,10.8458399 18.7685443,9.52638889 Z M22.1762409,9.52638889 C22.1762409,10.3532449 22.3335177,11.1361074 22.6480759,11.875 C22.962634,12.6138926 23.3907762,13.2560158 23.9325153,13.8013889 C24.4742544,14.346762 25.112099,14.7777762 25.846068,15.0944444 C26.5800371,15.4111127 27.3576832,15.5694444 28.1790296,15.5694444 C29.0003759,15.5694444 29.778022,15.4111127 30.5119911,15.0944444 C31.2459602,14.7777762 31.8881735,14.346762 32.4386503,13.8013889 C32.9891271,13.2560158 33.4216381,12.6138926 33.7361963,11.875 C34.0507545,11.1361074 34.2080312,10.3532449 34.2080312,9.52638889 C34.2080312,8.6995329 34.0507545,7.91667036 33.7361963,7.17777778 C33.4216381,6.43888519 32.9891271,5.79236388 32.4386503,5.23819444 C31.8881735,4.68402501 31.2459602,4.24421459 30.5119911,3.91875 C29.778022,3.59328541 29.0003759,3.43055556 28.1790296,3.43055556 C27.3576832,3.43055556 26.5800371,3.59328541 25.846068,3.91875 C25.112099,4.24421459 24.4742544,4.68402501 23.9325153,5.23819444 C23.3907762,5.79236388 22.962634,6.43888519 22.6480759,7.17777778 C22.3335177,7.91667036 22.1762409,8.6995329 22.1762409,9.52638889 Z M43.1204685,0.395833333 C43.1379439,0.29027725 43.1860007,0.197917063 43.2646403,0.11875 C43.3432798,0.0395829375 43.4524998,0 43.5923034,0 L44.0117122,0 C44.2214177,0 44.3699568,0.0879620833 44.4573341,0.263888889 L50.2242052,12.7194444 L50.3028444,12.7194444 L56.0697156,0.263888889 C56.1570928,0.0879620833 56.305632,0 56.5153374,0 L56.9347462,0 C57.0745499,0 57.1837698,0.0395829375 57.2624094,0.11875 C57.3410489,0.197917063 57.3891057,0.29027725 57.4065811,0.395833333 L60.4997211,18.1291667 C60.534672,18.3226862 60.5084593,18.4722217 60.421082,18.5777778 C60.3337047,18.6833339 60.2026408,18.7361111 60.0278862,18.7361111 L57.6424986,18.7361111 C57.5201704,18.7361111 57.4153193,18.6921301 57.327942,18.6041667 C57.2405647,18.5162033 57.1794016,18.4282412 57.1444506,18.3402778 L55.5978806,8.33888889 L55.5192415,8.33888889 L50.9319576,18.7097222 C50.8620558,18.9032417 50.7135167,19 50.4863358,19 L50.0145008,19 C49.8047954,19 49.6562562,18.9032417 49.568879,18.7097222 L44.929169,8.33888889 L44.8505298,8.33888889 L43.3301729,18.3402778 C43.3126974,18.4282412 43.2602719,18.5162033 43.1728946,18.6041667 C43.0855173,18.6921301 42.9806662,18.7361111 42.858338,18.7361111 L40.4991634,18.7361111 C40.1147034,18.7361111 39.9486891,18.5337983 40.0011154,18.1291667 L43.1204685,0.395833333 Z M62.2297825,18.7361111 C62.0375525,18.7361111 61.8933822,18.6657414 61.7972672,18.525 C61.7011522,18.3842586 61.6967834,18.2259268 61.7841606,18.05 L69.9364194,0.290277778 C70.0237967,0.0967582917 70.1723358,0 70.3820413,0 L70.6441718,0 C70.7839754,0 70.8844578,0.026388625 70.9456219,0.0791666667 C71.006786,0.131944708 71.0548427,0.202314375 71.0897936,0.290277778 L79.1634133,18.05 C79.2507905,18.2259268 79.2464217,18.3842586 79.1503067,18.525 C79.0541917,18.6657414 78.9100214,18.7361111 78.7177914,18.7361111 L76.437256,18.7361111 C76.245026,18.7361111 76.0921181,18.6965282 75.9785276,18.6173611 C75.8649372,18.538194 75.7644548,18.4018528 75.6770775,18.2083333 L74.392638,15.3583333 L66.5549359,15.3583333 L65.2704964,18.2083333 C65.21807,18.3490748 65.130694,18.4722217 65.0083659,18.5777778 C64.8860377,18.6833339 64.7200234,18.7361111 64.5103179,18.7361111 L62.2297825,18.7361111 Z M73.1081985,12.4291667 L70.4868935,6.62361111 L70.4082543,6.62361111 L67.8393753,12.4291667 L73.1081985,12.4291667 Z M81.4701617,0.765277778 C81.4701617,0.624536333 81.5182185,0.505787521 81.6143335,0.409027778 C81.7104485,0.312268035 81.8284061,0.263888889 81.9682097,0.263888889 L88.1282766,0.263888889 C88.9321475,0.263888889 89.6923184,0.417822535 90.408812,0.725694444 C91.1253057,1.03356635 91.7500438,1.45138625 92.2830452,1.97916667 C92.8160465,2.50694708 93.2354512,3.12707977 93.5412716,3.83958333 C93.8470921,4.5520869 94,5.30416271 94,6.09583333 C94,6.92268932 93.8470921,7.69235755 93.5412716,8.40486111 C93.2354512,9.11736467 92.8160465,9.74629357 92.2830452,10.2916667 C91.7500438,10.8370398 91.1296745,11.2636559 90.4219186,11.5715278 C89.7141627,11.8793997 88.9583606,12.0333333 88.1544897,12.0333333 L84.8778583,12.0333333 L84.8778583,18.2347222 C84.8778583,18.3754637 84.8298016,18.4942125 84.7336866,18.5909722 C84.6375716,18.687732 84.519614,18.7361111 84.3798104,18.7361111 L81.9682097,18.7361111 C81.8284061,18.7361111 81.7104485,18.687732 81.6143335,18.5909722 C81.5182185,18.4942125 81.4701617,18.3754637 81.4701617,18.2347222 L81.4701617,0.765277778 Z M88.0234244,8.81388889 C88.390409,8.81388889 88.7311752,8.74351922 89.0457334,8.60277778 C89.3602916,8.46203633 89.6355259,8.26851975 89.8714445,8.02222222 C90.1073631,7.77592469 90.2908527,7.48564982 90.4219186,7.15138889 C90.5529845,6.81712796 90.6185165,6.45648342 90.6185165,6.06944444 C90.6185165,5.69999815 90.5529845,5.36134413 90.4219186,5.05347222 C90.2908527,4.74560031 90.1073631,4.47731596 89.8714445,4.24861111 C89.6355259,4.01990626 89.3602916,3.83958399 89.0457334,3.70763889 C88.7311752,3.57569378 88.390409,3.50972222 88.0234244,3.50972222 L84.8778583,3.50972222 L84.8778583,8.81388889 L88.0234244,8.81388889 Z" id="HOMAP"></path>
                <path d="M5.50296443,24.4491018 L6.66699605,24.4491018 L6.66699605,31.3852295 L5.50296443,31.3852295 L5.50296443,28.3213573 L2.16403162,28.3213573 L2.16403162,31.3852295 L1,31.3852295 L1,24.4491018 L2.16403162,24.4491018 L2.16403162,27.4431138 L5.50296443,27.4431138 L5.50296443,24.4491018 Z M11.8540843,30.0179641 C12.1944461,29.6852944 12.3646245,29.2228905 12.3646245,28.6307385 C12.3646245,28.0385865 12.1995515,27.577846 11.8694005,27.248503 C11.5392496,26.91916 11.1393304,26.754491 10.6696311,26.754491 C10.1999318,26.754491 9.80511798,26.91916 9.48517787,27.248503 C9.16523775,27.577846 9.00527009,28.0402499 9.00527009,28.6357285 C9.00527009,29.2312072 9.16183418,29.6936111 9.47496706,30.0229541 C9.78809994,30.3522971 10.1778084,30.5169661 10.6441041,30.5169661 C11.1103998,30.5169661 11.5137225,30.3506337 11.8540843,30.0179641 Z M10.6389987,31.4750499 C9.8221303,31.4750499 9.148224,31.2139081 8.61725955,30.6916168 C8.08629511,30.1693254 7.82081686,29.4840362 7.82081686,28.6357285 C7.82081686,27.7874209 8.09480402,27.1021317 8.64278656,26.5798403 C9.1907691,26.057549 9.87318432,25.7964072 10.6900527,25.7964072 C11.5069211,25.7964072 12.1893363,26.057549 12.7373188,26.5798403 C13.2853014,27.1021317 13.5592885,27.7857576 13.5592885,28.6307385 C13.5592885,29.4757195 13.2784942,30.1610087 12.7168972,30.6866267 C12.1553002,31.2122448 11.4626743,31.4750499 10.6389987,31.4750499 Z M17.4393939,26.8143713 L16.0711462,26.8143713 L16.0711462,29.8582834 C16.0711462,30.0645386 16.120498,30.2125744 16.2192029,30.3023952 C16.3179078,30.392216 16.4863844,30.4371257 16.7246377,30.4371257 L17.4393939,30.4371257 L17.4393939,31.3852295 L16.5204216,31.3852295 C15.438071,31.3852295 14.8969038,30.8762526 14.8969038,29.8582834 L14.8969038,26.8143713 L14.2332016,26.8143713 L14.2332016,25.8862275 L14.8969038,25.8862275 L14.8969038,24.5189621 L16.0711462,24.5189621 L16.0711462,25.8862275 L17.4393939,25.8862275 L17.4393939,26.8143713 Z M20.8804348,31.4750499 C20.0635664,31.4750499 19.3998708,31.2155715 18.8893281,30.6966068 C18.3787853,30.1776421 18.1235178,29.4890262 18.1235178,28.6307385 C18.1235178,27.7724508 18.3821889,27.0854983 18.8995389,26.5698603 C19.4168888,26.0542223 20.0856898,25.7964072 20.9059618,25.7964072 C21.7262338,25.7964072 22.3916312,26.0442424 22.9021739,26.5399202 C23.4127167,27.035598 23.6679842,27.6826307 23.6679842,28.4810379 C23.6679842,28.6739863 23.6543699,28.8536252 23.627141,29.0199601 L19.3181818,29.0199601 C19.3454108,29.4790442 19.5036766,29.843312 19.7929842,30.1127745 C20.0822917,30.3822369 20.4447716,30.5169661 20.8804348,30.5169661 C21.5135078,30.5169661 21.9593751,30.2608143 22.2180501,29.748503 L23.4739789,29.748503 C23.303798,30.2541609 22.9940734,30.6683284 22.5447958,30.991018 C22.0955182,31.3137075 21.5407367,31.4750499 20.8804348,31.4750499 Z M22.4528986,28.241517 C22.4460913,27.7890862 22.2929308,27.4281451 21.9934124,27.1586826 C21.693894,26.8892202 21.3297123,26.754491 20.9008564,26.754491 C20.4720005,26.754491 20.1129242,26.8892202 19.8236166,27.1586826 C19.534309,27.4281451 19.369236,27.7890862 19.3283926,28.241517 L22.4528986,28.241517 Z M24.8115942,31.3852295 L24.8115942,24 L25.9756258,24 L25.9756258,31.3852295 L24.8115942,31.3852295 Z M38.0447958,24.4491018 L38.0447958,31.3852295 L36.8807642,31.3852295 L36.8807642,26.6347305 L34.7160738,31.3852295 L33.9094203,31.3852295 L31.7345191,26.6347305 L31.7345191,31.3852295 L30.5704875,31.3852295 L30.5704875,24.4491018 L31.8264163,24.4491018 L34.3178524,29.8882236 L36.7990777,24.4491018 L38.0447958,24.4491018 Z M43.2829381,29.988024 C43.6232999,29.6487009 43.7934783,29.1962769 43.7934783,28.6307385 C43.7934783,28.0652001 43.6250017,27.6161028 43.2880435,27.2834331 C42.9510853,26.9507635 42.5511661,26.7844311 42.088274,26.7844311 C41.625382,26.7844311 41.2254628,26.9474368 40.8885046,27.2734531 C40.5515464,27.5994694 40.3830698,28.04524 40.3830698,28.6107784 C40.3830698,29.1763169 40.5515464,29.6304041 40.8885046,29.9730539 C41.2254628,30.3157036 41.625382,30.4870259 42.088274,30.4870259 C42.5511661,30.4870259 42.9493835,30.3206936 43.2829381,29.988024 Z M41.8432148,31.4750499 C41.0944187,31.4750499 40.4647588,31.2072548 39.9542161,30.6716567 C39.4436733,30.1360585 39.1884058,29.4507693 39.1884058,28.6157685 C39.1884058,27.7807676 39.4419716,27.1021317 39.9491107,26.5798403 C40.4562498,26.057549 41.0876115,25.7964072 41.8432148,25.7964072 C42.2856851,25.7964072 42.6753936,25.8945433 43.0123518,26.0908184 C43.34931,26.2870935 43.6096829,26.5449086 43.7934783,26.8642715 L43.7934783,25.8862275 L44.9677207,25.8862275 L44.9677207,31.3852295 L43.7934783,31.3852295 L43.7934783,30.3572854 C43.6028756,30.6966085 43.340801,30.9677302 43.0072464,31.1706587 C42.6736918,31.3735872 42.2856851,31.4750499 41.8432148,31.4750499 Z M47.6633729,25.8862275 L47.6633729,26.8443114 C48.0241564,26.1457051 48.585745,25.7964072 49.3481555,25.7964072 L49.3481555,26.9740519 L49.0520422,26.9740519 C48.5959573,26.9740519 48.2504952,27.0871579 48.0156456,27.3133733 C47.7807959,27.5395886 47.6633729,27.9321329 47.6633729,28.491018 L47.6633729,31.3852295 L46.4993412,31.3852295 L46.4993412,25.8862275 L47.6633729,25.8862275 Z M51.5843215,31.3852295 L50.4202899,31.3852295 L50.4202899,24 L51.5843215,24 L51.5843215,28.2914172 L53.6264822,25.8862275 L55.2397892,25.8862275 L52.6462451,28.6407186 L55.2397892,31.3852295 L53.6673254,31.3852295 L51.5843215,29.0199601 L51.5843215,31.3852295 Z M58.4459816,31.4750499 C57.6291132,31.4750499 56.9654176,31.2155715 56.4548748,30.6966068 C55.9443321,30.1776421 55.6890646,29.4890262 55.6890646,28.6307385 C55.6890646,27.7724508 55.9477357,27.0854983 56.4650856,26.5698603 C56.9824356,26.0542223 57.6512366,25.7964072 58.4715086,25.7964072 C59.2917806,25.7964072 59.9571779,26.0442424 60.4677207,26.5399202 C60.9782634,27.035598 61.233531,27.6826307 61.233531,28.4810379 C61.233531,28.6739863 61.2199167,28.8536252 61.1926877,29.0199601 L56.8837286,29.0199601 C56.9109575,29.4790442 57.0692234,29.843312 57.358531,30.1127745 C57.6478385,30.3822369 58.0103184,30.5169661 58.4459816,30.5169661 C59.0790545,30.5169661 59.5249219,30.2608143 59.7835968,29.748503 L61.0395257,29.748503 C60.8693448,30.2541609 60.5596202,30.6683284 60.1103426,30.991018 C59.6610649,31.3137075 59.1062835,31.4750499 58.4459816,31.4750499 Z M60.0184453,28.241517 C60.0116381,27.7890862 59.8584776,27.4281451 59.5589592,27.1586826 C59.2594408,26.8892202 58.8952591,26.754491 58.4664032,26.754491 C58.0375473,26.754491 57.6784709,26.8892202 57.3891634,27.1586826 C57.0998558,27.4281451 56.9347828,27.7890862 56.8939394,28.241517 L60.0184453,28.241517 Z M65.1034256,26.8143713 L63.7351779,26.8143713 L63.7351779,29.8582834 C63.7351779,30.0645386 63.7845296,30.2125744 63.8832345,30.3023952 C63.9819394,30.392216 64.150416,30.4371257 64.3886693,30.4371257 L65.1034256,30.4371257 L65.1034256,31.3852295 L64.1844532,31.3852295 C63.1021026,31.3852295 62.5609354,30.8762526 62.5609354,29.8582834 L62.5609354,26.8143713 L61.8972332,26.8143713 L61.8972332,25.8862275 L62.5609354,25.8862275 L62.5609354,24.5189621 L63.7351779,24.5189621 L63.7351779,25.8862275 L65.1034256,25.8862275 L65.1034256,26.8143713 Z M70.2496706,29.9780439 C70.5900324,29.6320675 70.7602108,29.1763169 70.7602108,28.6107784 C70.7602108,28.04524 70.5917342,27.5994694 70.254776,27.2734531 C69.9178178,26.9474368 69.5161969,26.7844311 69.0499012,26.7844311 C68.5836055,26.7844311 68.1819846,26.9507635 67.8450264,27.2834331 C67.5080681,27.6161028 67.3395916,28.0652001 67.3395916,28.6307385 C67.3395916,29.1962769 67.5080681,29.6470376 67.8450264,29.9830339 C68.1819846,30.3190303 68.5819037,30.4870259 69.0447958,30.4870259 C69.5076879,30.4870259 69.9093088,30.317367 70.2496706,29.9780439 Z M69.3000659,25.7964072 C70.0556691,25.7964072 70.6853291,26.057549 71.1890646,26.5798403 C71.6928001,27.1021317 71.944664,27.7807676 71.944664,28.6157685 C71.944664,29.4507693 71.6910983,30.1360585 71.1839592,30.6716567 C70.67682,31.2072548 70.0488619,31.4750499 69.3000659,31.4750499 C68.8575955,31.4750499 68.4695888,31.3735872 68.1360343,31.1706587 C67.8024797,30.9677302 67.5370014,30.6966085 67.3395916,30.3572854 L67.3395916,34 L66.1755599,34 L66.1755599,25.8862275 L67.3395916,25.8862275 L67.3395916,26.8642715 C67.5301942,26.5449086 67.7939706,26.2870935 68.1309289,26.0908184 C68.4678871,25.8945433 68.8575955,25.7964072 69.3000659,25.7964072 Z M73.0984848,31.3852295 L73.0984848,24 L74.2625165,24 L74.2625165,31.3852295 L73.0984848,31.3852295 Z M79.5006588,29.988024 C79.8410206,29.6487009 80.0111989,29.1962769 80.0111989,28.6307385 C80.0111989,28.0652001 79.8427224,27.6161028 79.5057642,27.2834331 C79.168806,26.9507635 78.7688868,26.7844311 78.3059947,26.7844311 C77.8431026,26.7844311 77.4431835,26.9474368 77.1062253,27.2734531 C76.7692671,27.5994694 76.6007905,28.04524 76.6007905,28.6107784 C76.6007905,29.1763169 76.7692671,29.6304041 77.1062253,29.9730539 C77.4431835,30.3157036 77.8431026,30.4870259 78.3059947,30.4870259 C78.7688868,30.4870259 79.1671042,30.3206936 79.5006588,29.988024 Z M78.0609354,31.4750499 C77.3121394,31.4750499 76.6824795,31.2072548 76.1719368,30.6716567 C75.661394,30.1360585 75.4061265,29.4507693 75.4061265,28.6157685 C75.4061265,27.7807676 75.6596922,27.1021317 76.1668314,26.5798403 C76.6739705,26.057549 77.3053322,25.7964072 78.0609354,25.7964072 C78.5034058,25.7964072 78.8931143,25.8945433 79.2300725,26.0908184 C79.5670307,26.2870935 79.8274036,26.5449086 80.0111989,26.8642715 L80.0111989,25.8862275 L81.1854414,25.8862275 L81.1854414,31.3852295 L80.0111989,31.3852295 L80.0111989,30.3572854 C79.8205963,30.6966085 79.5585217,30.9677302 79.2249671,31.1706587 C78.8914125,31.3735872 78.5034058,31.4750499 78.0609354,31.4750499 Z M85.0859684,31.4750499 C84.2691,31.4750499 83.6054044,31.2155715 83.0948617,30.6966068 C82.5843189,30.1776421 82.3290514,29.4906896 82.3290514,28.6357285 C82.3290514,27.7807675 82.5860207,27.093815 83.0999671,26.5748503 C83.6139134,26.0558856 84.2759072,25.7964072 85.0859684,25.7964072 C85.766692,25.7964072 86.3299824,25.9544229 86.7758564,26.2704591 C87.2217304,26.5864953 87.5229461,27.0372559 87.6795125,27.6227545 L86.4235837,27.6227545 C86.2125593,27.0439093 85.766692,26.754491 85.0859684,26.754491 C84.6094618,26.754491 84.2299641,26.91916 83.9474638,27.248503 C83.6649635,27.577846 83.5237154,28.0385865 83.5237154,28.6307385 C83.5237154,29.2228905 83.6649635,29.6852944 83.9474638,30.0179641 C84.2299641,30.3506337 84.6094618,30.5169661 85.0859684,30.5169661 C85.7598848,30.5169661 86.2057521,30.2275478 86.4235837,29.6487026 L87.6795125,29.6487026 C87.5161388,30.2075876 87.2098178,30.651695 86.7605402,30.9810379 C86.3112626,31.3103809 85.7530776,31.4750499 85.0859684,31.4750499 Z M91.2124506,31.4750499 C90.3955822,31.4750499 89.7318866,31.2155715 89.2213439,30.6966068 C88.7108011,30.1776421 88.4555336,29.4890262 88.4555336,28.6307385 C88.4555336,27.7724508 88.7142047,27.0854983 89.2315547,26.5698603 C89.7489047,26.0542223 90.4177056,25.7964072 91.2379776,25.7964072 C92.0582496,25.7964072 92.723647,26.0442424 93.2341897,26.5399202 C93.7447325,27.035598 94,27.6826307 94,28.4810379 C94,28.6739863 93.9863857,28.8536252 93.9591568,29.0199601 L89.6501976,29.0199601 C89.6774266,29.4790442 89.8356924,29.843312 90.125,30.1127745 C90.4143076,30.3822369 90.7767875,30.5169661 91.2124506,30.5169661 C91.8455236,30.5169661 92.2913909,30.2608143 92.5500659,29.748503 L93.8059947,29.748503 C93.6358138,30.2541609 93.3260892,30.6683284 92.8768116,30.991018 C92.427534,31.3137075 91.8727525,31.4750499 91.2124506,31.4750499 Z M92.7849144,28.241517 C92.7781071,27.7890862 92.6249466,27.4281451 92.3254282,27.1586826 C92.0259098,26.8892202 91.6617281,26.754491 91.2328722,26.754491 C90.8040163,26.754491 90.44494,26.8892202 90.1556324,27.1586826 C89.8663249,27.4281451 89.7012519,27.7890862 89.6604084,28.241517 L92.7849144,28.241517 Z" id="Hotel-Marketplace"></path>
            </g>
        </g>
    </g>
</svg>