<?xml version="1.0" encoding="UTF-8"?>
<svg width="177px" height="46px" viewBox="0 0 177 46" version="1.1" xmlns="http://www.w3.org/2000/svg" xmlns:xlink="http://www.w3.org/1999/xlink">
    <!-- Generator: Sketch 49 (51002) - http://www.bohemiancoding.com/sketch -->
    <title>default</title>
    <desc>Created with Sketch.</desc>
    <defs></defs>
    <g id="Page-1" stroke="none" stroke-width="1" fill="none" fill-rule="evenodd">
        <g id="default" transform="translate(0.000000, -4.000000)">
            <g id="compass" transform="translate(0.000000, 4.000000)" fill="#5191FA">
                <path d="M34.9008828,42.6853047 C35.7496367,42.1710391 36.0209648,41.0662305 35.5067891,40.2173867 C34.9925234,39.3684531 33.8877148,39.0973047 33.0388711,39.6114805 C30.02075,41.4398906 26.5492773,42.40625 23,42.40625 C12.2993398,42.40625 3.59375,33.7006602 3.59375,23 C3.59375,12.2993398 12.2993398,3.59375 23,3.59375 C33.7006602,3.59375 42.40625,12.2993398 42.40625,23 C42.40625,26.8263555 41.2683789,30.5508281 39.1156328,33.7708281 C38.5639922,34.5958633 38.7857266,35.7118125 39.6106719,36.2632734 C40.4358867,36.8149141 41.5516563,36.5931797 42.1031172,35.7682344 C44.6525234,31.9550859 46,27.5398047 46,23 C46,16.8564844 43.6075508,11.0806992 39.2635156,6.73648437 C34.9193008,2.39244922 29.1435156,0 23,0 C16.8564844,0 11.0806992,2.39244922 6.73648438,6.73648438 C2.39244922,11.0806992 0,16.8564844 0,23 C0,29.1435156 2.39244922,34.9193008 6.73648438,39.2635156 C11.0806992,43.6075508 16.8564844,46 23,46 C27.2058555,46 31.3210586,44.8537734 34.9008828,42.6853047 Z" id="Shape" fill-rule="nonzero"></path>
                <path d="M26.0808511,31.8170213 C26.5404277,31.8170213 26.9148921,31.9702112 27.2212766,32.2765957 C27.5390087,32.5943278 27.6978723,32.9687922 27.6978723,33.4 C27.6978723,33.8425554 27.5390087,34.2226934 27.2212766,34.5404255 C26.9148921,34.84681 26.5404277,35 26.0978723,35 C24.1290683,35 22.4609998,34.3078083 21.0765957,32.9234043 C19.6921917,31.5390002 19,29.8709317 19,27.9191489 L19,12.5829787 C19,12.1517709 19.15319,11.7773066 19.4595745,11.4595745 C19.7773066,11.15319 20.1574446,11 20.6,11 C21.0312078,11 21.4056722,11.15319 21.7234043,11.4595745 C22.0297888,11.7773066 22.1829787,12.1517709 22.1829787,12.5829787 L22.1829787,17.8595745 L24.7531915,17.8595745 C25.1957469,17.8595745 25.5702112,18.0127644 25.8765957,18.3191489 C26.1943278,18.6255334 26.3531915,18.9999978 26.3531915,19.4425532 C26.3531915,19.8851086 26.1943278,20.2595729 25.8765957,20.5659574 C25.5702112,20.8836895 25.1957469,21.0425532 24.7531915,21.0425532 L22.1829787,21.0425532 L22.1829787,27.9191489 C22.1829787,28.9971685 22.5631168,29.9163083 23.3234043,30.6765957 C24.0836917,31.4368832 25.0028315,31.8170213 26.0808511,31.8170213 Z" id="t" stroke="#5191FA" stroke-width="0.6"></path>
            </g>
            <g id="Group" transform="translate(59.000000, 0.000000)" fill="#1A2B48">
                <path d="M4.98,11.15 C5.0000001,11.0299994 5.05499955,10.9250005 5.145,10.835 C5.23500045,10.7449995 5.3599992,10.7 5.52,10.7 L6,10.7 C6.2400012,10.7 6.4099995,10.799999 6.51,11 L13.11,25.16 L13.2,25.16 L19.8,11 C19.9000005,10.799999 20.0699988,10.7 20.31,10.7 L20.79,10.7 C20.9500008,10.7 21.0749995,10.7449995 21.165,10.835 C21.2550005,10.9250005 21.3099999,11.0299994 21.33,11.15 L24.87,31.31 C24.9100002,31.5300011 24.8800005,31.6999994 24.78,31.82 C24.6799995,31.9400006 24.530001,32 24.33,32 L21.6,32 C21.4599993,32 21.3400005,31.9500005 21.24,31.85 C21.1399995,31.7499995 21.0700002,31.6500005 21.03,31.55 L19.26,20.18 L19.17,20.18 L13.92,31.97 C13.8399996,32.1900011 13.6700013,32.3 13.41,32.3 L12.87,32.3 C12.6299988,32.3 12.4600005,32.1900011 12.36,31.97 L7.05,20.18 L6.96,20.18 L5.22,31.55 C5.1999999,31.6500005 5.1400005,31.7499995 5.04,31.85 C4.9399995,31.9500005 4.8200007,32 4.68,32 L1.98,32 C1.5399978,32 1.3499997,31.7700023 1.41,31.31 L4.98,11.15 Z M28.83,11.57 C28.83,11.4099992 28.8849994,11.2750006 28.995,11.165 C29.1050005,11.0549995 29.2399992,11 29.4,11 L32.19,11 C32.3500008,11 32.4849994,11.0549995 32.595,11.165 C32.7050005,11.2750006 32.76,11.4099992 32.76,11.57 L32.76,31.43 C32.76,31.5900008 32.7050005,31.7249994 32.595,31.835 C32.4849994,31.9450005 32.3500008,32 32.19,32 L29.4,32 C29.2399992,32 29.1050005,31.9450005 28.995,31.835 C28.8849994,31.7249994 28.83,31.5900008 28.83,31.43 L28.83,11.57 Z M42.3,21.23 L36.3,11.84 C36.1799994,11.639999 36.1699995,11.4500009 36.27,11.27 C36.3700005,11.0899991 36.5499987,11 36.81,11 L40.29,11 C40.4100006,11 40.5099996,11.0299997 40.59,11.09 C40.6700004,11.1500003 40.7299998,11.2099997 40.77,11.27 L44.55,17.63 L44.67,17.63 L48.54,11.27 C48.5800002,11.2099997 48.6399996,11.1500003 48.72,11.09 C48.8000004,11.0299997 48.8999994,11 49.02,11 L52.5,11 C52.7600013,11 52.9399995,11.0899991 53.04,11.27 C53.1400005,11.4500009 53.1300006,11.639999 53.01,11.84 L46.98,21.23 L53.22,31.16 C53.3400006,31.3800011 53.3500005,31.5749992 53.25,31.745 C53.1499995,31.9150008 52.9700013,32 52.71,32 L49.47,32 C49.3499994,32 49.2450004,31.9700003 49.155,31.91 C49.0649995,31.8499997 49.0000002,31.7900003 48.96,31.73 L44.67,24.86 L44.55,24.86 L40.35,31.73 C40.3099998,31.7900003 40.2450004,31.8499997 40.155,31.91 C40.0649995,31.9700003 39.9600006,32 39.84,32 L36.6,32 C36.3199986,32 36.1300005,31.9100009 36.03,31.73 C35.9299995,31.5499991 35.9399994,31.360001 36.06,31.16 L42.3,21.23 Z M58.95,11.15 C58.9700001,11.0299994 59.0249995,10.9250005 59.115,10.835 C59.2050005,10.7449995 59.3299992,10.7 59.49,10.7 L59.97,10.7 C60.2100012,10.7 60.3799995,10.799999 60.48,11 L67.08,25.16 L67.17,25.16 L73.77,11 C73.8700005,10.799999 74.0399988,10.7 74.28,10.7 L74.76,10.7 C74.9200008,10.7 75.0449995,10.7449995 75.135,10.835 C75.2250004,10.9250005 75.2799999,11.0299994 75.3,11.15 L78.84,31.31 C78.8800002,31.5300011 78.8500005,31.6999994 78.75,31.82 C78.6499995,31.9400006 78.500001,32 78.3,32 L75.57,32 C75.4299993,32 75.3100005,31.9500005 75.21,31.85 C75.1099995,31.7499995 75.0400002,31.6500005 75,31.55 L73.23,20.18 L73.14,20.18 L67.89,31.97 C67.8099996,32.1900011 67.6400013,32.3 67.38,32.3 L66.84,32.3 C66.5999988,32.3 66.4300005,32.1900011 66.33,31.97 L61.02,20.18 L60.93,20.18 L59.19,31.55 C59.1699999,31.6500005 59.1100005,31.7499995 59.01,31.85 C58.9099995,31.9500005 58.7900007,32 58.65,32 L55.95,32 C55.5099978,32 55.3199997,31.7700023 55.38,31.31 L58.95,11.15 Z M80.82,32 C80.5999989,32 80.4350005,31.9200008 80.325,31.76 C80.2149994,31.5999992 80.2099995,31.420001 80.31,31.22 L89.64,11.03 C89.7400005,10.8099989 89.9099988,10.7 90.15,10.7 L90.45,10.7 C90.6100008,10.7 90.7249997,10.7299997 90.795,10.79 C90.8650004,10.8500003 90.9199998,10.9299995 90.96,11.03 L100.2,31.22 C100.300001,31.420001 100.295001,31.5999992 100.185,31.76 C100.074999,31.9200008 99.9100011,32 99.69,32 L97.08,32 C96.8599989,32 96.6850007,31.9550005 96.555,31.865 C96.4249994,31.7749996 96.3100005,31.6200011 96.21,31.4 L94.74,28.16 L85.77,28.16 L84.3,31.4 C84.2399997,31.5600008 84.1400007,31.6999994 84,31.82 C83.8599993,31.9400006 83.6700012,32 83.43,32 L80.82,32 Z M93.27,24.83 L90.27,18.23 L90.18,18.23 L87.24,24.83 L93.27,24.83 Z M102.84,11.57 C102.84,11.4099992 102.894999,11.2750006 103.005,11.165 C103.115001,11.0549995 103.249999,11 103.41,11 L110.46,11 C111.380005,11 112.249996,11.1749983 113.07,11.525 C113.890004,11.8750018 114.604997,12.349997 115.215,12.95 C115.825003,13.550003 116.304998,14.254996 116.655,15.065 C117.005002,15.8750041 117.18,16.7299955 117.18,17.63 C117.18,18.5700047 117.005002,19.4449959 116.655,20.255 C116.304998,21.065004 115.825003,21.7799969 115.215,22.4 C114.604997,23.0200031 113.895004,23.5049982 113.085,23.855 C112.274996,24.2050018 111.410005,24.38 110.49,24.38 L106.74,24.38 L106.74,31.43 C106.74,31.5900008 106.685001,31.7249994 106.575,31.835 C106.464999,31.9450005 106.330001,32 106.17,32 L103.41,32 C103.249999,32 103.115001,31.9450005 103.005,31.835 C102.894999,31.7249994 102.84,31.5900008 102.84,31.43 L102.84,11.57 Z M110.34,20.72 C110.760002,20.72 111.149998,20.6400008 111.51,20.48 C111.870002,20.3199992 112.184999,20.1000014 112.455,19.82 C112.725001,19.5399986 112.934999,19.2100019 113.085,18.83 C113.235001,18.4499981 113.31,18.0400022 113.31,17.6 C113.31,17.1799979 113.235001,16.7950017 113.085,16.445 C112.934999,16.0949983 112.725001,15.7900013 112.455,15.53 C112.184999,15.2699987 111.870002,15.0650007 111.51,14.915 C111.149998,14.7649993 110.760002,14.69 110.34,14.69 L106.74,14.69 L106.74,20.72 L110.34,20.72 Z" id="MIXMAP"></path>
                <path d="M11.07,39.05 L11.07,46 L9.93,46 L9.93,41.24 L7.81,46 L7.02,46 L4.89,41.24 L4.89,46 L3.75,46 L3.75,39.05 L4.98,39.05 L7.42,44.5 L9.85,39.05 L11.07,39.05 Z M13.87,39.03 C13.87,39.2366677 13.8000007,39.4099993 13.66,39.55 C13.5199993,39.6900007 13.3483344,39.76 13.145,39.76 C12.9416656,39.76 12.7700007,39.6900007 12.63,39.55 C12.4899993,39.4099993 12.42,39.2366677 12.42,39.03 C12.42,38.8233323 12.4899993,38.6500007 12.63,38.51 C12.7700007,38.3699993 12.9416656,38.3 13.145,38.3 C13.3483344,38.3 13.5199993,38.3699993 13.66,38.51 C13.8000007,38.6500007 13.87,38.8233323 13.87,39.03 Z M12.57,46 L12.57,40.49 L13.71,40.49 L13.71,46 L12.57,46 Z M19.35,40.49 L17.57,43.21 L19.35,46 L18.06,46 L16.87,44.13 L15.75,46 L14.56,46 L16.34,43.29 L14.56,40.49 L15.85,40.49 L17.04,42.36 L18.16,40.49 L19.35,40.49 Z M27.89,46 L27.39,44.58 L24.48,44.58 L23.98,46 L22.79,46 L25.28,39.04 L26.6,39.04 L29.09,46 L27.89,46 Z M24.79,43.69 L27.08,43.69 L25.94,40.42 L24.79,43.69 Z M30.17,46 L30.17,38.6 L31.31,38.6 L31.31,46 L30.17,46 Z M32.81,46 L32.81,38.6 L33.95,38.6 L33.95,46 L32.81,46 Z M40.61,39.89 C40.2699983,39.89 39.9933344,39.9766658 39.78,40.15 C39.5666656,40.3233342 39.46,40.5749984 39.46,40.905 C39.46,41.2350017 39.5866654,41.4866658 39.84,41.66 C40.0933346,41.8333342 40.3999982,41.9599996 40.76,42.04 C41.1200018,42.1200004 41.4799982,42.2116661 41.84,42.315 C42.2000018,42.4183338 42.5066654,42.6099986 42.76,42.89 C43.0133346,43.1700014 43.14,43.5666641 43.14,44.08 C43.14,44.5933359 42.9233355,45.0533313 42.49,45.46 C42.0566645,45.8666687 41.4766703,46.07 40.75,46.07 C40.0233297,46.07 39.4333356,45.9000017 38.98,45.56 C38.5266644,45.2199983 38.3,44.750003 38.3,44.15 L39.52,44.15 C39.5466668,44.4566682 39.659999,44.6999991 39.86,44.88 C40.060001,45.0600009 40.3533314,45.15 40.74,45.15 C41.1266686,45.15 41.4316655,45.050001 41.655,44.85 C41.8783344,44.649999 41.99,44.4133347 41.99,44.14 C41.99,43.8666653 41.9216673,43.6533341 41.785,43.5 C41.6483326,43.3466659 41.4716677,43.231667 41.255,43.155 C41.0383322,43.078333 40.8000013,43.0100003 40.54,42.95 C40.2799987,42.8899997 40.0183346,42.8200004 39.755,42.74 C39.4916653,42.6599996 39.2516677,42.5566673 39.035,42.43 C38.8183322,42.3033327 38.6416673,42.1183346 38.505,41.875 C38.3683326,41.6316654 38.3,41.3333351 38.3,40.98 C38.3,40.3733303 38.5183312,39.8850019 38.955,39.515 C39.3916688,39.1449981 39.9583298,38.96 40.655,38.96 C41.3516701,38.96 41.9083312,39.1199984 42.325,39.44 C42.7416687,39.7600016 42.9733331,40.2233303 43.02,40.83 L41.76,40.83 C41.7333332,40.563332 41.620001,40.3400009 41.42,40.16 C41.219999,39.9799991 40.9500017,39.89 40.61,39.89 Z M46.81,46.09 C46.009996,46.09 45.3600025,45.8300026 44.86,45.31 C44.3599975,44.7899974 44.11,44.1000043 44.11,43.24 C44.11,42.3799957 44.3633308,41.6916693 44.87,41.175 C45.3766692,40.6583307 46.0316627,40.4 46.835,40.4 C47.6383374,40.4 48.2899975,40.6483309 48.79,41.145 C49.2900025,41.6416691 49.54,42.289996 49.54,43.09 C49.54,43.2833343 49.5266668,43.4633325 49.5,43.63 L45.28,43.63 C45.3066668,44.0900023 45.4616653,44.4549987 45.745,44.725 C46.0283347,44.9950013 46.3833312,45.13 46.81,45.13 C47.4300031,45.13 47.8666654,44.8733359 48.12,44.36 L49.35,44.36 C49.1833325,44.8666692 48.8800022,45.2816651 48.44,45.605 C47.9999978,45.9283349 47.4566699,46.09 46.81,46.09 Z M48.35,42.85 C48.3433333,42.3966644 48.1933348,42.0350014 47.9,41.765 C47.6066652,41.4949986 47.2500021,41.36 46.83,41.36 C46.4099979,41.36 46.0583347,41.4949986 45.775,41.765 C45.4916652,42.0350014 45.3300002,42.3966644 45.29,42.85 L48.35,42.85 Z M51.8,40.49 L51.8,41.45 C52.1533351,40.7499965 52.7033296,40.4 53.45,40.4 L53.45,41.58 L53.16,41.58 C52.7133311,41.58 52.3750012,41.6933322 52.145,41.92 C51.9149989,42.1466678 51.8,42.5399972 51.8,43.1 L51.8,46 L50.66,46 L50.66,40.49 L51.8,40.49 Z M53.85,40.49 L55.07,40.49 L56.63,44.98 L58.19,40.49 L59.42,40.49 L57.32,46 L55.94,46 L53.85,40.49 Z M61.56,39.03 C61.56,39.2366677 61.4900007,39.4099993 61.35,39.55 C61.2099993,39.6900007 61.0383343,39.76 60.835,39.76 C60.6316657,39.76 60.4600007,39.6900007 60.32,39.55 C60.1799993,39.4099993 60.11,39.2366677 60.11,39.03 C60.11,38.8233323 60.1799993,38.6500007 60.32,38.51 C60.4600007,38.3699993 60.6316657,38.3 60.835,38.3 C61.0383343,38.3 61.2099993,38.3699993 61.35,38.51 C61.4900007,38.6500007 61.56,38.8233323 61.56,39.03 Z M60.26,46 L60.26,40.49 L61.4,40.49 L61.4,46 L60.26,46 Z M65.22,46.09 C64.419996,46.09 63.7700025,45.8300026 63.27,45.31 C62.7699975,44.7899974 62.52,44.1016709 62.52,43.245 C62.52,42.3883291 62.7716641,41.7000026 63.275,41.18 C63.7783359,40.6599974 64.4266627,40.4 65.22,40.4 C65.88667,40.4 66.4383312,40.5583318 66.875,40.875 C67.3116688,41.1916682 67.6066659,41.6433304 67.76,42.23 L66.53,42.23 C66.3233323,41.6499971 65.88667,41.36 65.22,41.36 C64.753331,41.36 64.3816681,41.5249984 64.105,41.855 C63.8283319,42.1850017 63.69,42.6466637 63.69,43.24 C63.69,43.8333363 63.8283319,44.296665 64.105,44.63 C64.3816681,44.963335 64.753331,45.13 65.22,45.13 C65.8800033,45.13 66.3166656,44.8400029 66.53,44.26 L67.76,44.26 C67.5999992,44.8200028 67.3000022,45.2649983 66.86,45.595 C66.4199978,45.9250016 65.8733366,46.09 65.22,46.09 Z M71.22,46.09 C70.419996,46.09 69.7700025,45.8300026 69.27,45.31 C68.7699975,44.7899974 68.52,44.1000043 68.52,43.24 C68.52,42.3799957 68.7733308,41.6916693 69.28,41.175 C69.7866692,40.6583307 70.4416627,40.4 71.245,40.4 C72.0483374,40.4 72.6999975,40.6483309 73.2,41.145 C73.7000025,41.6416691 73.95,42.289996 73.95,43.09 C73.95,43.2833343 73.9366668,43.4633325 73.91,43.63 L69.69,43.63 C69.7166668,44.0900023 69.8716653,44.4549987 70.155,44.725 C70.4383348,44.9950013 70.7933312,45.13 71.22,45.13 C71.8400031,45.13 72.2766654,44.8733359 72.53,44.36 L73.76,44.36 C73.5933325,44.8666692 73.2900022,45.2816651 72.85,45.605 C72.4099978,45.9283349 71.8666699,46.09 71.22,46.09 Z M72.76,42.85 C72.7533333,42.3966644 72.6033348,42.0350014 72.31,41.765 C72.0166652,41.4949986 71.6600021,41.36 71.24,41.36 C70.8199979,41.36 70.4683347,41.4949986 70.185,41.765 C69.9016653,42.0350014 69.7400002,42.3966644 69.7,42.85 L72.76,42.85 Z M74.82,42.07 C74.82,41.603331 75.0166647,41.208335 75.41,40.885 C75.8033353,40.5616651 76.3199968,40.4 76.96,40.4 C77.6000032,40.4 78.1083315,40.5583318 78.485,40.875 C78.8616686,41.1916682 79.0633332,41.6233306 79.09,42.17 L77.92,42.17 C77.8999999,41.8966653 77.8050009,41.6833341 77.635,41.53 C77.4649992,41.3766659 77.2266682,41.3 76.92,41.3 C76.6133318,41.3 76.3733342,41.3683326 76.2,41.505 C76.0266658,41.6416673 75.94,41.8216655 75.94,42.045 C75.94,42.2683344 76.0499989,42.4433327 76.27,42.57 C76.4900011,42.6966673 76.7583317,42.7899997 77.075,42.85 C77.3916683,42.9100003 77.7083318,42.9833329 78.025,43.07 C78.3416682,43.1566671 78.6099989,43.3149988 78.83,43.545 C79.0500011,43.7750012 79.16,44.0833314 79.16,44.47 C79.16,44.9500024 78.9583354,45.3399985 78.555,45.64 C78.1516647,45.9400015 77.6333365,46.09 77,46.09 C76.3666635,46.09 75.8533353,45.9366682 75.46,45.63 C75.0666647,45.3233318 74.8500002,44.8866695 74.81,44.32 L75.99,44.32 C76.0100001,44.5933347 76.1099991,44.8066659 76.29,44.96 C76.4700009,45.1133341 76.7149984,45.19 77.025,45.19 C77.3350016,45.19 77.5816658,45.1216673 77.765,44.985 C77.9483343,44.8483327 78.04,44.6666678 78.04,44.44 C78.04,44.2133322 77.9300011,44.0366673 77.71,43.91 C77.4899989,43.7833327 77.2216683,43.6883337 76.905,43.625 C76.5883318,43.5616663 76.2716683,43.4883337 75.955,43.405 C75.6383318,43.3216662 75.3700011,43.1700011 75.15,42.95 C74.9299989,42.7299989 74.82,42.4366685 74.82,42.07 Z M84.71,39.03 C84.71,39.2366677 84.6400007,39.4099993 84.5,39.55 C84.3599993,39.6900007 84.1883344,39.76 83.985,39.76 C83.7816657,39.76 83.6100007,39.6900007 83.47,39.55 C83.3299993,39.4099993 83.26,39.2366677 83.26,39.03 C83.26,38.8233323 83.3299993,38.6500007 83.47,38.51 C83.6100007,38.3699993 83.7816657,38.3 83.985,38.3 C84.1883344,38.3 84.3599993,38.3699993 84.5,38.51 C84.6400007,38.6500007 84.71,38.8233323 84.71,39.03 Z M83.41,46 L83.41,40.49 L84.55,40.49 L84.55,46 L83.41,46 Z M87.19,40.49 L87.19,41.36 C87.5566685,40.7199968 88.1433293,40.4 88.95,40.4 C89.5700031,40.4 90.0816647,40.6066646 90.485,41.02 C90.8883354,41.4333354 91.09,42.0099963 91.09,42.75 L91.09,46 L89.96,46 L89.96,42.92 C89.96,42.4266642 89.8366679,42.0483347 89.59,41.785 C89.3433321,41.5216653 89.0066688,41.39 88.58,41.39 C88.1533312,41.39 87.8150013,41.5216653 87.565,41.785 C87.3149988,42.0483347 87.19,42.4266642 87.19,42.92 L87.19,46 L86.05,46 L86.05,40.49 L87.19,40.49 Z M98.71,45.04 C99.4100035,45.04 99.9816644,44.8083357 100.425,44.345 C100.868336,43.8816644 101.09,43.2716705 101.09,42.515 C101.09,41.7583295 100.868336,41.1500023 100.425,40.69 C99.9816644,40.2299977 99.4100035,40 98.71,40 C98.0099965,40 97.4383355,40.2299977 96.995,40.69 C96.5516644,41.1500023 96.33,41.7583295 96.33,42.515 C96.33,43.2716705 96.5516644,43.8816644 96.995,44.345 C97.4383355,44.8083357 98.0099965,45.04 98.71,45.04 Z M98.71,46.07 C97.7166617,46.07 96.8766701,45.7350033 96.19,45.065 C95.5033299,44.3949966 95.16,43.5450052 95.16,42.515 C95.16,41.4849948 95.5033299,40.6350033 96.19,39.965 C96.8766701,39.2949967 97.7183284,38.96 98.715,38.96 C99.7116716,38.96 100.551663,39.2949967 101.235,39.965 C101.918337,40.6350033 102.26,41.4849948 102.26,42.515 C102.26,43.5450052 101.918337,44.3949966 101.235,45.065 C100.551663,45.7350033 99.710005,46.07 98.71,46.07 Z M104.52,40.49 L104.52,41.36 C104.886668,40.7199968 105.473329,40.4 106.28,40.4 C106.900003,40.4 107.411665,40.6066646 107.815,41.02 C108.218335,41.4333354 108.42,42.0099963 108.42,42.75 L108.42,46 L107.29,46 L107.29,42.92 C107.29,42.4266642 107.166668,42.0483347 106.92,41.785 C106.673332,41.5216653 106.336669,41.39 105.91,41.39 C105.483331,41.39 105.145001,41.5216653 104.895,41.785 C104.644999,42.0483347 104.52,42.4266642 104.52,42.92 L104.52,46 L103.38,46 L103.38,40.49 L104.52,40.49 Z M112.19,46.09 C111.389996,46.09 110.740002,45.8300026 110.24,45.31 C109.739998,44.7899974 109.49,44.1000043 109.49,43.24 C109.49,42.3799957 109.743331,41.6916693 110.25,41.175 C110.756669,40.6583307 111.411663,40.4 112.215,40.4 C113.018337,40.4 113.669997,40.6483309 114.17,41.145 C114.670002,41.6416691 114.92,42.289996 114.92,43.09 C114.92,43.2833343 114.906667,43.4633325 114.88,43.63 L110.66,43.63 C110.686667,44.0900023 110.841665,44.4549987 111.125,44.725 C111.408335,44.9950013 111.763331,45.13 112.19,45.13 C112.810003,45.13 113.246665,44.8733359 113.5,44.36 L114.73,44.36 C114.563332,44.8666692 114.260002,45.2816651 113.82,45.605 C113.379998,45.9283349 112.83667,46.09 112.19,46.09 Z M113.73,42.85 C113.723333,42.3966644 113.573335,42.0350014 113.28,41.765 C112.986665,41.4949986 112.630002,41.36 112.21,41.36 C111.789998,41.36 111.438335,41.4949986 111.155,41.765 C110.871665,42.0350014 110.71,42.3966644 110.67,42.85 L113.73,42.85 Z" id="Mix-All-Services-in"></path>
            </g>
        </g>
    </g>
</svg>